<?xml version="1.0" encoding="UTF-8"?>
<svg id="Layer_1" data-name="Layer 1" xmlns="http://www.w3.org/2000/svg" viewBox="0 0 1031.22 1042.07">
  <defs>
    <style>
      .cls-1 {
        fill: #fff;
      }
    </style>
  </defs>
  <path class="cls-1" d="M649.06,254.9l45.92,64.4-64.37-45.75-12.87,182.91c-1.94-8.77-1.54-17.43-2.22-27.1l-10.9-155.99-65.78,47.27,47.26-65.72-69.99-8.35-24.99-2.98-27.34-3.26,33.73-3.11,31.51-2.9,57.13-5.27-19.87-27.43-11.62-16.05-14.08-19.43c-.4-.56-.81-.82-1.05-.94-.87-.49-.61-1.79.54-1.76.51.96,1.05,1.27,1.13,1.21l20.7,14.99,16.61,12.04,26.12,18.93,3.19-41.29,1.99-25.85,5.89-76.09c.64-8.31.08-15.79,2.01-23.3l6.92,89.2,1.78,22.85,4.2,54.25,64.38-45.84-45.97,64.5,120.74,11.66-120.7,14.19Z"/>
  <path class="cls-1" d="M893.33,731.12c2.74.73,4.62.57,6.78-.97.7-.51,1.48-1.21,2.08-2.02-3.31,1.19-6.35,2.21-8.86,2.99ZM937.44,485l-8.23,2.16c-4.23-.42-8.32-.96-12.07.93-5.05,2.55-9.19.96-14.74.79-.79-.01-1.8.31-2.89.7-2.81.99-6.18,2.4-8.18-.58-1.48-2.26-1.12-6.81-.84-9.74,2.74,1.57,3.78,4.72,5.27,6.1,1.17,1.09,2.18,1.25,3.07.96,1.61-.49,2.84-2.4,4.08-2.78,1.23-.37,2.37-.74,3.41-1.17,3.03-1.2,5.39-2.82,7.53-6.17,2.25-3.57,3.94-8.15-.54-11.1l-6.87,4.89-8.29,1.38c-1.48.24-3.17.22-3.96-.46-.93-.81-.91-2.9-.13-3.81.61-.77,1.74-1.5,3.68-1.79l.57-9.46c2.42-.52,6.09-.17,6.69-2.13l1.96-6.49c2.85-1.82,4.91-8.56,1.68-9.76l-14.13,1.36c1.76-3.33,3.04-5.58,2.96-9.04-.05-2.53-3.49-3.99-4.87-6.67-1.97-3.82-3.02-9.53-2.96-13.98l.21-13.77c.04-1.95-2.01-4.58-3.91-4.06l-5.84,22.75-1.45,9.45c-.45,2.94-2.39,5.58-.57,9.2.49.98-.03,3.07-.81,3.56-2.04,1.28-8.8-1.35-9.07,5.81,2.22.86,4.1,1.1,5.78,2.81-2.67,2.37-4.16,5.1-3.2,7.87,1.72,4.9,9.95,3.22,11.2,5,1.69,2.4.99,7.68-1.15,8.72-2.65,1.3-5-4.38-8.64-2.76-.32.15-.67.36-1.02.63-4.52,3.59-10.59-1.18-13.51,5.17-.86,1.88-.45,4.77,1.8,5.94,8.87,4.56,14.86-3.95,18.72,5.5.86,2.13.07,5.13-2.14,6.49-10.9-6.88-14.05,1.53-18.69-2.64-2.17-1.95-6.27-2.14-8.73-.24-.73.56-1.33,1.31-1.69,2.25-1.38,3.67,1.96,8.87,5.6,9.56,5.54-1.54,9.94-.81,13.56,3.35,1.26-.1,2.53-.12,3.76-.02,3.44.26,6.64,1.37,9.09,3.98.23.7.2,1.57-.03,2.48-.5,2.13-2.06,4.34-3.55,4.37-4.4-1.85-7.24-.63-11.82.52-2.62.68-8.48-1.19-8.92,4.24-.26,3.44,5.17,6.51,8.61,6.22,5.05-.49,11.41,3.52,12.08,6.78,1.33,6.62-5.99,1.79-12.96,3.72-7.19-6.19-19.22-8.36-20.42-2.47-1.09,5.28-6.5,5.91-4.89,9.99.96,2.37,5.54,6.1,8.77,5.92,1.83-.08,3.54-1.62,5.19-2.69,2.73-1.77,4.83,2.35,6.74,2.14l8.1-.86c3.07,2.47,6.06,2.9,9.61.27,1.61,1.84,5.05,5.65,4.34,8.3-2.99,10.75,3.67,11.28,1.13,14.35-.58.7-1.6.67-2.02.1-.28-.37-.61-1.1-.72-2.53-2.01-.57-4.4-.23-6.12-2,.05-2.14-.05-4.33-1.07-5.83-.5-.73-9.63-5.01-13.67-3.91-2.42.65-4.51,2.43-6.09,5.28l-7.14.86c-.47,1.05-1.15,1.78-1.93,2.29-1.43.94-3.2,1.18-4.66,1.54-2,.52-3.38,1.25-2.49,4.35.25.79.54,1.82,1.24,2.6.45.52,1.12.94,2.06,1.12,1.96.35,4.01.68,6.09.91,4.77.55,9.7.64,14.3-.39,1.95-.44,4.89-4.76,7.84-2.08,2.81,2.51.28,10.68-4.12,10.84-2.37-.44-7.03-1-8.96-2.16-3.07-1.86-5.36-1.99-8.15-1.91-.96.03-1.99.09-3.12.11-2.37.05-4.79-.05-7.13.2-2.64.27-5.18.97-7.43,2.76-2.44-1.25-5.93-2.28-7.59-.22-1,1.25-3.36,3.46-2.89,5.72,3.43,3.91,9.13,6.18,14.39,4.3.16.16.31.31.47.46,2.45,2.24,5.42,2.3,8.25,1.13,3.21-1.83,5.4-1.31,7.98,0,.64.33,1.3.7,2,1.09,2.78,1.61,7.76-.18,10.86.71,4.53,1.32,7.99.78,12.31-2.82,2.79,9.4.97,19.14-1.12,16.53-2.18-2.75-3.04-4.7-6.2-4.44-4.24.36-1.82,6.09-15.26,8.59-.91.16-1.71.2-2.39.1-5.83-.75-3.96-9.9-8.91-10.78-2.5-.44-3.92.94-5.8,2.32l-4.98,3.74-2.86,2.12c-3.99,2.97-8.67,3.57-12.68.88-3.8-2.53-10.08-.75-10.8,3.8-.21,1.41,7.31,7.97,12.39,8.98-2.91,2.58-5.67,3.37-8.68,4.98.73,9.29,7.51,6.17,16.03,7.79,2.05.39,4-1.44,4.57-2.74.5-1.14.27-2.73.05-4.22-.07-.42-.12-.83-.17-1.22,2.41-1.87,6.24-3.9,9.37-4.81,3.26-.92,3.44,4.06,4.43,5.52,4.4,1.01,10.05-2.12,14.09-2.79.57-.1,1.11-.24,1.61-.42,4.84-1.57,8.01-5.96,16.93-6.4,2.41,4.92,2.86,9.61,1.45,14.34l-5.68-7.26c-1.46-1.87-4.92-1.17-6.71.18-1.35,1.01-1.91,3.07-1.26,5.03,1.67,5,7.4,2.96,6.73,6.9-.65,4-4.19-1.25-7.77-.55-3.33.67-3.9,5.03-6.45,4.82-.19-.01-.37-.05-.53-.09-2.93-.8-2.76-6.24-9.29-7.47-5.42-1.03-7.22,8.16-12.83,6.86-1.54-.35-2.74-.29-3.76.09-2.02.66-3.3,2.43-4.92,4.28-.31.36-.6.7-.88,1.06-2.12,2.68-3.31,5.31-1.17,8.15,2.02,2.64,5.73,3.65,8.85,1.88,8.38-4.79,9.73,6.96,18.12-1.07,1.1,2.74,1.67,4.69,2.81,5.39.19.11.44.23.73.32,3.29,1.04,12.52.51,15.78-4.32,2.35,1.14,4.33,1.12,6.9,1.08l-1.43,17.64-.02.12c-.14,0-.29,0-.44,0-2.82.04-4.91-1.75-7.28-3.16-2.49-1.46-5.02-.99-7.59-.41-.92.23-1.86.46-2.8.62l-6.95-1.79c-3.75,1.87-5.59,5.23-7.31,8.74-.5,1.04-2.77.45-3.07-.25-1.95-4.56-4.04-4.84-9.59-7.51-1.66,1.65-2.4,3.11-4.73,3.81-.22-1.95-.52-3.51-1.05-4.79-.47-1.1-1.11-1.98-2.05-2.69-1.44-1.12-5-2.21-6.69.29-1.29,1.92-.84,4.66-.52,7.34.25,1.96.44,3.91-.19,5.48-.76,1.95-2.45,2.81-4.51,3.14-5.65.87-14.14-2.36-14.34,1.12-.13,2.51,2,3.72,5,4.79,1.17.4,2.47.81,3.82,1.26,2.38.8,4.92,1.76,7.17,3.28,3.2,2.15,6.17,1.87,9.19-.53.2-.16.39-.33.59-.51.14.26.29.52.43.75,1.06,1.69,2.11,2.66,3.28,3.17,1.38.56,3.12-.59,6.5-2.03,2.09-.91,4.82-1.95,8.49-2.76,1.67-.38,3.44-2.28,5.26-1.53,1.74.7,2.92,1.85,3.91,4.14,1.27,2.89,6.25,5.72,8.77,3.02.35-.37.71-.75,1.07-1.12,1.04-1.07,2.11-2.08,3.25-2.97,2.15-1.7,4.54-2.99,7.48-3.38.21-.03.42-.06.63-.08,3.09,4.4,3.57,11.87,2.97,17.24-.39,3.56-1.26,6.2-2.19,6.45-1.15.32-3.65-.68-4.2-1.93-2.29-5.22-5.9-4.92-10.6-4.63-3.82.26-7.36-1.07-10.91,2.35-.51.47-2.24.46-2.55-.11-.99-1.87,3.36-4.98,5.4-9.97-5.06-7.74-18.65-2.3-19.95,1.92-.92,2.97.68,5,1.74,7.79.5,1.3-2.29,2.58-3.46,2.24-1.01-.31-2.6-1.66-3.67-2.97-3.49.49-8.28,1.1-11.75,2.56-.99,1.66-1.89,4.45-3.25,5.1-2.16,1.02-4.56-.26-6.7-.97-.65-.23-1.27-.39-1.85-.42-.86-.07-1.64.17-2.28.95-1.54,1.9-.81,4.44,1.11,6.85,1.36,1.74,3.37,3.45,5.6,4.79,2.09,1.29,4.38,2.28,6.56,2.75l.94-.2,6.18-1.25c.85,3.48,2.73,4.53,5.33,4.91.66.08,1.36.14,2.09.17,12.34.52,10.91-9.8,16.92-7.92,5.15,1.59,9.98-.32,14.5-.06.97.06,1.85.08,2.66.05.86-.05,1.66-.15,2.42-.35,1.65-.4,3.16-1.23,4.87-2.67.4,1.1.91,2.54,1.72,3.76,1.05,1.59,2.61,2.76,5.18,2.21l-1.09,8.95c-.02.13-.05.27-.1.4-1.15,3.04-10.57,5.02-14.28,1.98-4.81-3.91-15.02-2.17-17.33,4.61-3.05.77-8.73-.6-11.88,1.8-1.57,1.21-1.53,3.3-.76,4.86.45.94,1.47,2.21,3.03,2.79,5.77,2.11,3.83,7.21,5.98,8.39.78.44,2.94,1.03,4.01.75,5.03-1.36,9.37.8,13.78.26l8.67-1.02c1.27-.15,3.3-1.14,5.19-1.56,1.14-.28,2.25-.31,3.12.16.29.29.44.62.47.98.23,1.55-1.56,3.54-2.35,4.44-2.01,2.28,1.98,5.49,2,7.25-.18,3.83-.31,7.64-.41,11.46-.02.35-.02.71-.03,1.08-.16,6.69-.2,13.37-.08,20.04,0,.68.03,1.35.05,2.03.14,6.97.45,13.95.95,20.94,2.51-2.25,5-4.56,7.49-6.91,4.38-4.15,8.63-8.33,12.73-12.52,0-2.66.06-5.35.03-8.1h1.6l.04-4.11.03-3.72c-.1.03-.21.07-.33.08.18-.55.3-1.09.35-1.59.04-.47.04-.91,0-1.33-.2-2.01-1.3-3.6-2.05-5.33-.24-.55-.44-1.1-.57-1.7-.03-.15-.06-.31-.08-.45l-.84-6.19-1.72-12.44c3.15-1.54,4.57.1,6.03,1.6l-1.05-6.37-4.58-27.48c.34.42,2.66-.07,6.19-1.14.27-.08.57-.16.86-.26-.99-.26-2.1-.63-3.36-1.1-.15-.05-.28-.12-.43-.17-.22-.16-.25-.37-.14-.58.32-.73,2.13-1.58,3.49-1.41,4.07-.25,6.8-1.98,8.7-6.01,2.47,2.16,1.92,4.51.6,6.28.2-.08.41-.14.62-.22,2.03-8.69,4.14-17.85,6.22-26.89-.52-.23-1.09-.4-1.76-.5-1.64-.25-3.81,1.31-4.15,3.34-.36,2.13.99,3.82,1.99,6.71-9.56-1.46-1.8-12.96-12.19-11.25-.08.01-.18.03-.27.05,1.39-4.42,8.11-4.63,7.97-8.02-.17-3.28-5.31-1.38-8.04-3.46,1.48-2.26,4.22-1.72,5.18-2.6,3.34-2.97.92-7.05,1.05-10.44,6.22-4.11,6.04,10.07,15.07,4.84.28-1.25.57-2.47.84-3.69,1.53-6.81,2.94-13.18,4.16-18.78l-5.52-2.48c1.23-2.99-1.78-7.47-4.45-6.09-1.75.91-2.68,6.51-6.26,4.93-3.35-1.46-7.88-1.68-11.9-2.19-1.61-1.67,2.51-6.25,4.92-4.88,3.18,1.83,5.76,2.32,8.66,1.12,2.88-1.19,3.45-4.06,4.4-7.05,5.49-4.4,9.71-1.28,14.06-1.04.31-1.14.64-2.27.99-3.41,1.64-5.47,3.71-11.01,5.98-16.41-.38-.05-.75-.07-1.14-.05-1.33.1-2.63,2.56-4.45,2.78l-9.35,1.02c-3.89,2-6.95,2.9-10.62.81-3.06-1.75-3-4.3-4.04-7.99-.03-.14-.06-.29-.11-.44-.33-1.12-1.61-1.68-3.15-1.96-2.05-.37-4.55-.21-5.96-.05-.86-4.77-.52-8.67-.15-12.73,1.11-.19,2.13-.14,3.12.05,0,0,.02.02.03.02.95.19,1.86.52,2.76.91.02.01.04.01.05.01,1.67.7,3.33,1.56,5.13,2.02,1.43.37,2.96.48,4.66.09,1.95-.43,2.94-3.78,4.35-5,9.32,2.76,10.83,9.81,19.91,3.32,6.99-5.04,6.05-13.43,4.04-15.51-2.99-3.07-11.25,3.35-15.76-2.58-.57-.75-1.08-1.69-1.51-2.86-.83-2.25-2.93-4.1-4.4-4.77-1.74-.8-4.61.32-6.45.67-5.29-3.48-11.93-2.07-15.76,3.65-1.98-.02-2.42-2.92-2.19-4.69l2.51-20.85c.2-1.46,1.58-2.3,2.39-2.48,3.89-.93,3.03,5.58,5.92,6.8,1.58.67,4.61,1.41,5.95.58,3.73-2.37,6.73-1.81,10.76-2.43,2.87-.44,5.08-2.58,8.6-1.09.15.05.28.12.43.18,2.74,1.33,7.9-1.38,7.5-4.79l-.98-8.6c-.61-5.26-9.46-2.88-12.95-3.62-1.07-2.07-1.53-6.14-3.92-7.44-.66-.39-1.49-.55-2.51-.37l-2.08,1.04-4.61,2.3c-4.11-.21-8.02,1.06-11.43,2.42-1.56-1.85-2.22-4.42-2.06-6.98.13-2.82,1.23-5.67,3.15-7.6l8.34,3.96c5.65-1.59,9.45-7.35,10.3-12.89-3.98-1.77-8.35.44-11.64-1.77-1.34-1.72,1.86-4.48,3.29-4.82,4.37-1.09,6.64,2.91,15.73-1.62,2.55-1.28,5.12-1.17,6.5-3.85.13-.26.26-.52.35-.76.9-2.13.77-4.14-.94-6.87,4.08-3.26,8.69-3.02,10.99-6.27.55-.76.67-4.04-.92-3.62ZM887.39,710.4c.04-.14.16-.24.3-.3.8-.36,2.76.45,3.53,1.64.27.4.39.84.29,1.29-.59,2.44-2.47,4.94-4.08,8.28-.52-3.44-1.34-7.4-.04-10.91ZM893.33,731.12c2.74.73,4.62.57,6.78-.97.7-.51,1.48-1.21,2.08-2.02-3.31,1.19-6.35,2.21-8.86,2.99ZM893.33,731.12c2.74.73,4.62.57,6.78-.97.7-.51,1.48-1.21,2.08-2.02-3.31,1.19-6.35,2.21-8.86,2.99ZM893.33,731.12c2.74.73,4.62.57,6.78-.97.7-.51,1.48-1.21,2.08-2.02-3.31,1.19-6.35,2.21-8.86,2.99ZM893.33,731.12c2.74.73,4.62.57,6.78-.97.7-.51,1.48-1.21,2.08-2.02-3.31,1.19-6.35,2.21-8.86,2.99ZM893.33,731.12c2.74.73,4.62.57,6.78-.97.7-.51,1.48-1.21,2.08-2.02-3.31,1.19-6.35,2.21-8.86,2.99ZM893.33,731.12c2.74.73,4.62.57,6.78-.97.7-.51,1.48-1.21,2.08-2.02-3.31,1.19-6.35,2.21-8.86,2.99ZM893.33,731.12c2.74.73,4.62.57,6.78-.97.7-.51,1.48-1.21,2.08-2.02-3.31,1.19-6.35,2.21-8.86,2.99ZM902.81,727.91c-.23.97-.46,1.93-.67,2.87-2.3,9.87-4.43,18.99-6.2,26.49-.92,3.98-1.75,7.5-2.45,10.44-.02-.01-.03-.01-.05-.03-.55-.34-1.04-.83-1.53-1.31l.44,2.66c1.29-.08,47.85-55.59,48.58-56.54-1.09,1.03-22.43,9.78-38.12,15.42ZM900.11,730.15c.7-.51,1.48-1.21,2.08-2.02-3.31,1.19-6.35,2.21-8.86,2.99,2.74.73,4.62.57,6.78-.97ZM893.33,731.12c2.74.73,4.62.57,6.78-.97.7-.51,1.48-1.21,2.08-2.02-3.31,1.19-6.35,2.21-8.86,2.99ZM893.33,731.12c2.74.73,4.62.57,6.78-.97.7-.51,1.48-1.21,2.08-2.02-3.31,1.19-6.35,2.21-8.86,2.99ZM893.33,731.12c2.74.73,4.62.57,6.78-.97.7-.51,1.48-1.21,2.08-2.02-3.31,1.19-6.35,2.21-8.86,2.99ZM893.33,731.12c2.74.73,4.62.57,6.78-.97.7-.51,1.48-1.21,2.08-2.02-3.31,1.19-6.35,2.21-8.86,2.99ZM893.33,731.12c2.74.73,4.62.57,6.78-.97.7-.51,1.48-1.21,2.08-2.02-3.31,1.19-6.35,2.21-8.86,2.99ZM893.33,731.12c2.74.73,4.62.57,6.78-.97.7-.51,1.48-1.21,2.08-2.02-3.31,1.19-6.35,2.21-8.86,2.99ZM893.33,731.12c2.74.73,4.62.57,6.78-.97.7-.51,1.48-1.21,2.08-2.02-3.31,1.19-6.35,2.21-8.86,2.99ZM909.04,688.73c-1.13.25-2.32.49-3.55.72.18.26.34.5.53.73,1.35,1.73,2.97,2.77,4.74,3.32.41-1.85.83-3.68,1.24-5.48-.96.26-1.93.48-2.96.71ZM891.2,777.31c-.19.53-.16,1.1.03,1.67t.02.03v-.05l.02-1.65v-.23c-.04.07-.07.15-.07.23Z"/>
  <path class="cls-1" d="M811.36,816.12l-5.94,5.91-6.2-.91-3.38-.48c-1.48-3.43-4.66-4.94-7.71-3.78l-6.72,2.53-4.03,1.52.52-7.63.34-4.85.03-.5,1.64-.3,4.03-.71c6.01-3.13,12.22-3.91,18.28-.37.05-.07.1-.12.14-.18,2.75-3.43,6.53-3.96,9.62-6.14,2.15-1.54-.17-6.62-2.39-7.4-5.33-1.82-9.48-1.06-15.37-1.28,1.52-2.33,2.02-4.73,1.12-6.08-1.66-2.43-6.16-.39-10.82-.55-1.44-.05-2.89-.31-4.28-.97,6.33-2.45,7.64-8.57,14.38-6.92,4.71,1.15,11.63-2.3,10.29-7.68l-5.37-8.28c-6.4-1.13-13.99-2.77-20.88-2.19-1,.08-1.09-2.06.59-2.82,1.83-.85,9.1,1.73,15.47.86,1.12-.15,2.19-.41,3.21-.8,2.99-1.13,4.61-3.2,8.33-1.43,2.58,1.24,5.26-.79,5.67-3.08.47-2.5-.72-5-4.05-5.49-2.11-.29-2.37-1.04-1.83-2.13.62-1.2,2.22-2.85,3.43-4.83.21-.33.4-.67.58-1.03.78-1.52,1.2-3.21.75-5.03-.34-1.41-1.29-2.52-2.42-3.46-1.22-1-2.68-1.82-4-2.59-1.29-.78-2.45-.57-3.5.04-1.85,1.09-3.4,3.4-4.91,3.54-5.47.59-9.05-2.76-14.56.26-1.49.83-3-2.64-3.36-3.91-.26-1.02,1.35-4.12,2.39-3.59,4.45,2.28,7.86,3.88,11.96,1.74,1.06-.55,2.03-1.56,2.88-2.83,1.3-1.89,2.3-4.38,2.87-6.75.06-.21.11-.42.15-.63.69-3.17.55-6.02-.8-6.79-.97-.57-2.5-.6-4.22-.42-5.81.62-13.85,3.78-10.55-2.06,1.33-2.36,7.43,2.04,10.66-3.75,3.33-6.03,9.61-8.31,8.01-11.5-.07-.13-.15-.26-.25-.39-.63-.9-1.91-1-3.57-.87-3.36.24-8.29,1.43-12.4-1.43,2.53-3.07,4.9-6.9,3-10.39-1.51-2.83-6.07-1.69-8.93-.03l3.83-14.31c-.53-12.29,1.37-18.47-1.9-18.94-5.82-.85-10.66,6.96-13.02,14.69l-1.42,4.72-2.73,9.06c-3.57-.53-7.78,1.42-8.69,4.4-.21.65-.26,1.37-.11,2.1.54,2.72,3.64,3.49,6.33,4.07,1.27.26,2.44.49,3.18.86.38.83.36,1.63.08,2.37-.61,1.74-2.56,3.14-3.68,3.77-1.84,1.02-4.76.21-6.92-.65-2.92-1.19-5.63.89-6.08,3.43-.33,1.81.95,3.99,3.45,4.83l12.18,4.14c3.03,1.04,4.22,3.02,4.8,4.76.83,2.47-.39,5.6-3.16,5.36-2.05-.18-3.54-4.14-3.96-6.16-6.71-3.34-13.57-4.51-20.85-1.83-3.8-1.64-7.73-2.05-11.26-1.22h-.02c-1.61.38-3.12.99-4.5,1.89-1.7,1.07-3.21,2.51-4.46,4.33-.91,1.7-.55,4.03-.28,5.2.28,1.12,2.68,3.19,3.77,2.71,6.15-2.7,10.42,2.06,15.19,1.91,5.7-.19,12.41-1.56,16.95,1.2,1.69,1.04,3.07,2.63,4,5.08l-4.92.09-16.53.3-1.25,11.11,8.09,1.52c2.5,1.61,4.83,2.2,6.98,2.29,5.99.28,10.4-3.34,12.24.64,1.33,2.85-.54,5.03-3.07,6.33-4.84,2.51-8.69,2.64-11.14,3.1-1.88.37-2.92.92-2.97,2.94-.02.44.08.87.26,1.28.58,1.36,2.06,2.5,3.85,2.53l13.18.23c-2.29,7.86-8.8,6.56-14.4,6.92l-2.34.14-10.21.67c-1.43.1-3.73,2.27-5.84,2.47-2.34.22-6.04.73-8.93,2.09-1.9.89-3.46,2.16-4.05,3.94-.76,2.34,2.16,4.1,5.04,4.78,1.49.37,2.99.45,3.93.18,5.05-1.51,6.52,1.62,8.68,4.4,2.4,3.1,6.72,2.84,9.82.87,1.24-.78,2.29-1.82,2.96-3.03,1.64-2.99,6.31-3.62,8.39-1.46,2.36,2.41,3.7,3.26,6.98,4.66-5.47,1.63-6.51,3.97-7.46,9.05l-5.74-3.05c-2.3-.36-4.51.07-6.6.91-1.92.78-3.74,1.9-5.49,3.12-.54.37-1.06.76-1.58,1.13l-2.95-1.8-9.79-5.97-2.43-1.48-3.07,2.57-6.43,5.35c-2.21-3.78-7.05-5.7-10.05-2.56-1.53,1.61-2.37,5.39-2.13,8.68.2,2.62,1.07,4.92,2.83,5.64.18.01.37.03.55.01,3.8.15,7.5-1.33,11.79.54l11.28-1.54c3.57,2.17,8.07,8.75,13.12,7.25,1.49-1,2.93-2.14,4.41-3.15,3.57-2.4,7.32-3.99,12.23-.79,2.43-1.8,3.83-3.52,7.22-4.6l-.68,11.69c-2.4-2.03-5.1-2.32-7.86-1.08-2,.9-2.17,3.44-3.51,5.69l-6.02,10.33-5.4-8.67c-.91-1.45-2.26-1.67-3.75-1.35-.35.13-.67.23-.99.29-.02.02-.04.02-.05.02-1.87.65-3.83,1.88-5.31,2.53l-7.78,3.35-1.85.79c-2.19.94-2.63,3.04-2.05,4.53,1.34,3.46,9.16,1.29,10.01,3.46l1.94,5.02c2.6,1.47,5.49,3.05,8.27,3.89,1.82.56,3.58.8,5.16.51l13.98-2.57c.39,5.51-1.63,9.61-4.22,14.68-2.76-4.78-5.39-6.01-9.76-5.33-3.75.6-6.62,3.01-6.07,8.38-.98,1.22-2.73.99-2.99-1.23l-10.71-7.81c-.83-.23-1.6-.41-2.28-.57-3.6-.8-5.5-.88-8.91-4.56-4.01-4.37-17.32-3.87-19.9,1.77-1.43,3.15-.44,6.6-1.61,9.61-.28.71-.68,1.41-1.27,2.06l2.18,2.82,4.48,5.83c-1.61,1.12-3.26,1.77-4.95,2.16-6.19,1.43-12.68-.6-17.73,4.47-1.28,1.29-1.32,5.39.54,5.94,7.27,2.17,14.56,1.04,21.9.03,3.08-.44,6.18-.83,9.3-.96,1.49-.06,3-.05,4.54-.01,4.03.08,8.19.27,12.21-.51,1.12-.21,2.24-.52,3.35-.91.18.25.37.49.55.72,2.51,3.18,5.1,5.78,8.65,6.04l8.95-4.09c4.14-.44,8.54,1.36,12.09-3.17,1.41-.45,2.31.6,1.93,2.31-1.34,6.18,6.46,15.58.57,15.86-.92.06-2.29-.93-3.54-2.28-3.41-3.65-12.82-1.02-12.38,4.45.09,1.16,1.01,3.45,1.87,5.99,10.35-3.7,20.36-7.75,30.07-12.19-.8-3.38-.84-7.84.78-14.11,4.05,2.81,6.06,2,10.46,1.37,2.73-.38,8.1,2.77,10.21-.88l2.81-4.85c.58-1.01,4.48-.47,5.55.74.99.08,1.98.48,2.88.71,1,.26,1.87.32,2.5-.51.19-.25.28-.64.31-1.15.17-2.92-1.91-9.85-2.51-17.49l-2.07,5.97c-.78-1.98-1.56-3.52-2.44-4.7-.97-1.37-2.11-2.23-3.57-2.7-2.78-.89-5.39,2.99-8.2,4.38-.02.04-.03.05-.05.04-.78.37-1.56.55-2.37.4-1.44-.27-2.4-6.34-5.94-7.76-2.06-.79-4.11.33-6.48,1.59-2.04.1-2.45-7.16.15-7.38,2.11-.18,3.83-.68,5.39-1.37,2.29-.99,4.2-2.33,6.39-3.54,2.13-1.18,4.52,0,6.74,1.38,1.98,1.22,3.85,2.62,5.28,2.68,5.34.23,5.37-7.38,6.14-11.39,2.77.61,9.27,4.28,11.98,1,4.53-5.42-.98-16.35-7.99-17.6ZM737.78,902.46c-.13-.13-.26-.24-.4-.34-.1-.07-.2-.13-.29-.18-3.14-2.06-6.12-.45-8.9,1.75-4.63,3.66-8.67,8.95-11.85,1.63-1.59-3.64-5.33-4.34-9.99-3.33-.58.13-1.17.28-1.78.45-1.79.52-3.69,1.25-5.62,2.13.29,1.84.18,3.38-.19,4.73-.35,1.21-.88,2.27-1.53,3.19-2.06,2.93-5.18,4.65-6.13,6.62,4.53-1.03,8.99-2.1,13.38-3.22,4.52-1.15,8.97-2.35,13.34-3.6,7.51-2.13,14.8-4.41,21.89-6.83-.55-1.21-1.17-2.28-1.93-3Z"/>
  <path class="cls-1" d="M821.65,199.81l32.4,23.49s5.7-46.79,6.68-50.63l6.59,50.51,32.89-23.42-23.48,32.96,29.54,6.6-29.52,6.6,23.47,32.9-32.89-23.37-6.57,59c-.99-4.48-6.7-59.09-6.7-59.09l-33.61,24.15,24.14-33.58-29.27-6.62,29.3-6.6-23.28-32.14c-.21-.29-.41-.42-.54-.48-.45-.25-.32-.91.27-.9.26.49.54.65.58.62Z"/>
  <g>
    <path class="cls-1" d="M710.96,769.98c-.36-2.87-.73-5.91-.99-8.72-.44-4.63-.6-8.57-.05-9.97l3.64-9.08-13.15-16.64-29.6-43.88-30.86-9.94-22.91-36.64-50.2-42.26-59.34-49.39-17.22-41.56-49.87-43.82c-8.88-23.49-19.4-45.65-30.36-69.32l33.35,12.48-17.94-28.64-25.91-30.18c-5.84-6.8-18.3-20.83-21.4-18.49-1.06.8-2.31,2.08-2.16,3.73l4.59,46.97-28.88,43.48-13.65,27.01c3.94-.5,6.14-1.96,9.09-3.12l24.74-9.58-23.35,40.44-13.26,29.6-32.42,52.6,30.8-19.29-26.56,46.19-17.55,29.73,3.83,4.84,42.62-38.54c10.29-9.29,19.12-18.46,28.36-28.74l26.51-29.47-21.19,52.65,13.67-7.26-26.27,54.78c3.2-1.92,5.44-4.29,7.97-6.79l36.35-35.81,30.34-72.84c4.4,15.21,7.13,29.4,9.79,44.14l13.99,13.13-26.59,31.53-12.21,31.53-39.5,47.26,9.58-3.21c-8.23,9.97-17.21,21.85-22.23,33.15,1.44,2.94,1.98,6.06-.23,9.97l30.08-26.71,35.96-32.57-16.92,51.56c-8.28,8.85-14.01,18.56-18.18,29.84l-17.45,18.99c2.24,2.79,2.24,68.07,3.72,66.61,2.6-2.57,10.32-44.56,10.73-44.6-1.2-2.79,1.23-9.01,3-11.38,5.11-6.83,11.4-11.59,18.28-16.56,5.19-3.73,7.83-9.77,12.44-14.89l2.09,7.29c4.92,8.69,5.39,18.33,8.62,27.66,1.07,3.1,7.05,6.07,4.59,11.62l-.91,5.57c5.24,2.35,6.35,7.91,3.47,12.87-2.81,4.85,4.81,1.8,6.06,4.72,1.35,3.21,1.58,19.87,2.45,25.89l16.58,23.22,2.78-13.39s-.08-63.54.28-66.66c.34-3.02,28.77,14.59,29.42,12.83l-1.95-13,5.7,10.99c4.33,8.38,7.58,17.32,8.8,26.35l6.77,6.4s30.93,7.09,30.81,9.76l-12.4,37.89s11.9-7.66,13.75-11.06c4.35-8.05,6.85-21.19,10.23-27.5l8.3-15.47,8.7,16.22c3.44,6.41,28.04,56.74,28.04,56.74-.21,5.34-2.6,9.72-3.91,14.87l.18,6.58c.08,1.23,2.97,1.88,4.11,2.05,0,0,23.59,3.02,26.79,1.43,0,0,11.48-21.95,11.48-22.39-2.34-3.52-10.97-47.84-11.75-50.29-1.49-4.72,16.02,18.39,20.8,16.43-1.25-3.02-1.23-13.98.08-17,.99-2.22,8.13-19.27,11.15-26.38l8.49-14.04c8.65,10.36,22.41,28.53,25.77,26.62-.96-.49-5.21-8.82-11.64-19.79-1.07-1.82-2.19-3.7-3.38-5.65-9.04-14.87-6.63-26.34-19.75-36.31l27.83,18.44-52.63-67.81,42.16,42.96,14.48,21.96c2.48,2.74,4.95,5.54,8.18,7.14,1.67.84,3.54,1.35,5.71,1.36,0-.45-.08-1.3-.21-2.45-.26-2.19-.7-5.45-1.15-9.01ZM651.42,789.94l-60.75-44.5-54.94-37.6,6.17,23.75-43.48-42.44-44.69,27.27c14.72-22.32,28.61-42.02,44.9-61.37l18.12-37.68,31.07,64.58,40.1,26.9,27.84,34.66,35.65,46.41Z"/>
    <path class="cls-1" d="M865.77,461.59l-7.41-10.41-9.3-5.23-11.51-8-18.99-29.16-46.02-72.23c-1.83-2.89-4.17-4.68-7.14-5.03-2.68-.32-6.49.45-8.34,3.05l-27.63,39.04-14.14,20.65c-2.18,3.15-12.06-1.44-16.04,5.39l-26.84,46.11-21.95,35.02c-3.44,5.49-9.25,7.48-15.42,4.66-4.42-2-9.3-.5-12.19,3.51l-13.73,19.17c-1.72,2.42-6.33,3.82-9.22,3.57-7.86-.62-20.05-21.51-26.41-31.45l-8.8-8.15-46.51-99.47c-1.25-2.66-1.9-5.88-4.66-6.96l-20.03-7.82-73.93-133.17-12.4-20.75c-1.69-2.82-4.77-4.48-7.52-4.64-3.21-.18-6.25.94-8.47,3.69l-50.73,62.44c-11.79,3-20.5-2.08-27.13,6.75l-95.64,127.7-39.76,34.47c4.5,7.87,7.26,20.42,12.5,17.42-2.34,5.86,39.87-15.36,39.87-15.36l-13.55,32.53-12.22,29.95,10.39-12.22,16.16-7.41,23.12-49.03,22.03-44.84,23.59-45.36c.21,3.91-1.38,6.9-2.37,10.71l-26.85,103.32,15.68-9.97-16.11,42.34c8.56-10.34,16.09-19.97,25.05-29.55,5.23-14.55,11.96-27.57,19.27-41.15,6.98-11.8,12.32-23.85,18.36-36.02,2.91-5.84,4.5-10.88,6.06-17.31l12.96-53.4,22.31-19.84,12.7-26.35,10.02-11.61,26.15,53.69c3.1,6.35,5.83,13.72,10.37,19.01l24.94,21.2c4.9,15.83,9.24,31.58,15.49,46.53l28.8,20.54,23.78,42.08,20.28,34.95,25.08,25.75c9.25,16.35,18.95,31.61,29.64,46.93,2.35,3.38,3.6,7.71,6.71,10.13l35.12,27.29,24.32,25.07-21.4-39.37c-4.17-6.12-9.14-10.89-14.85-15.68l-22.37-37.92,15.24-10.55,13.47,28.04,16.88,18.78,7.92,16.19,62.52,62.93,31.75,19.58c-.52-6.56-1.49-20.26-2.32-25.57l-7.21-46.22,34.37,31.2,9.69,8.25-15.68-38.65-12.32-29.63-23.85-25.7,13.43-69.42c-13,13.69-24.58,27.39-35.91,42.15l12.01-.58c-2.82,4.19-5.78,7.55-9.53,11.01l-49.6,45.57,28.56-64.86-30.5,18.82,27-34.87,29.71-33.62,20.83-57.29,18.8-26.07c4.14,6.45,9.68,12.87,11.04,19.89l-4.81,43.96,13.96,22.61,8.46,15.47-13.3,43.85,17.42,28.02,15.67-48.2,32.86,22.4c-5.16-10.71-10.75-19.66-17.71-28.49l-.06-6.83-11.64-23.17-8.91-20.07.89-.29,57.76,21.59Z"/>
    <path class="cls-1" d="M543.77,505.03l10.53,17.82-23.47-23.98c-10.11-5.19-18.61-11.89-27.39-18.92l-19.78-15.85-17.89-31.51,22.84,18.56,31.52,20.91c3.18,4.18,6.54,7.62,10.48,11.03l13.17,21.94Z"/>
    <path class="cls-1" d="M719.23,692.32l-19.83-15.32-17.3-12.95c-2.69-6.16-5.9-11.56-9.86-16.89l-5.68-9.67,25.29,18.57c3.47,2.55,5.58,6.34,8.09,9.7,6.65,8.87,13.88,16.54,19.29,26.55Z"/>
  </g>
  <path class="cls-1" d="M889.97,730.02c.65.68,1.51,1.12,2.5,1.36.27-.08.57-.16.86-.26-.99-.26-2.1-.63-3.36-1.1ZM889.97,730.02c.65.68,1.51,1.12,2.5,1.36.27-.08.57-.16.86-.26-.99-.26-2.1-.63-3.36-1.1ZM98.79,735.91l-.68.68.68.68.71-.68-.71-.68ZM168.52,740.08c-.45-.3-.89-.6-1.33-.91,2.63,4.13,5.32,8.21,8.1,12.24,2.32-.94,4.22-.72,6.1-2.76l-12.87-8.57ZM889.97,730.02c.65.68,1.51,1.12,2.5,1.36.27-.08.57-.16.86-.26-.99-.26-2.1-.63-3.36-1.1ZM889.97,730.02c.65.68,1.51,1.12,2.5,1.36.27-.08.57-.16.86-.26-.99-.26-2.1-.63-3.36-1.1ZM889.97,730.02c.65.68,1.51,1.12,2.5,1.36.27-.08.57-.16.86-.26-.99-.26-2.1-.63-3.36-1.1ZM540.94,926.6c-2.57-1.77-6.58,3.51-16.15-.84-.93-.43-3.24.66-4.11-1.09-.05-.1-.1-.2-.13-.31,1.62-.32,2.89-2.19,2.19-3.13-1.51-2.02-5-1.63-7.55-3.14-.89-.5-1.67-1.26-2.21-2.43,3.96.96,6.2.78,9.24-1.01l4.56-.78c1.4-.22,2.19-1.6,1.87-2.66-.23-.75-.91-1.44-1.61-2.27,5.77-2,8.64-6.95,6.53-9.03-2-1.98-8.52,2.65-16.77-1.82,6.87-4.85.27-3.78-4.58-5.95-.67-.31-1.32-.69-1.88-1.14l1.46-1.09c1.26.02,2.66.02,4.01-.16,2.35-.31,4.61-1.14,6.02-3.15.47-.68-1.88-2.45-2.5-2.37,5.86-3.05,8.31-7.94,5.89-9.86-1.81-1.44-7.14,2.98-12.89-.64-.34-.22-.68-.46-1.02-.75-.6-.47-1.2-1.04-1.8-1.72,3.2-1.74,6.41-3.09,8.16-5.93.26-3.42-6.75.75-11.73-4.77,5.13-.28,6.82-2.61,9.25-6.11l2.4-3.45c.43-.62-.55-2.57-1.64-3.06-4.17,1.86-7.59,1.66-10.69-2.35,3.92-1.05,6.38-5.05,6.33-9.35l-7.55-.07,2.68-4.44c1.04-1.71-1.16-2.72-1.51-3.95-2.44-8.15-2.63-16.25-6.68-24.63-3.94,8.33-4.23,16.84-5.94,25.26-.22,1.19-2.34,2.39-1.86,3.17l1.99,3.31c2.03,3.35-6.83.05-7.45,2.73-.32,1.48,3.38,7.55,7.68,8.47-2.83,2.33-5.39,2.7-8.13,2.63-1.04,0-2.13-.09-3.25-.16-1.45-.08-1.49,3.25-.76,3.91l3.18,2.86c.7,2.44,1.96,4.17,4.33,4.99.96.32,2.1.48,3.46.48-.84,1.67-2.01,2.49-3.41,3.01-1.48.56-3.2.79-5.03,1.38,1.3,3.73,4.63,4.74,7.19,6.13-1.72,2.19-4.56,1.66-6.04,2.58-7.45,4.7-10.79-2.42-12.82,1.82-.67,1.4-.26,2.79,1.08,3.85l4.55,3.55c-.2,1.04-.86,2.89-.21,3.51.62.6,7.74,2.21,12.64,2.97-2.46,3.56-6.2,3.02-9.25,4.66-.65.85,1.27,3.28,2.83,3.46-.82,2.66-3.23,1.17-4.65,1.43-3.68.68-6.36,1.54-9.79-.33-1.8-.97-3.8-.34-4.59,1.56-1.06,2.57,4.06,9.47,10.7,8.14l-2.58,4.53c4.85,3.14,9.19,1.75,14.59,1.89-2.97,4.11-7.01,5.54-11.95,6.06,1.5,2.47,3.36,1.75,5.6,2.76-3.97,1.56-9.07,4.19-13.58,2.79-3.14-.96-4.76-1.78-8.24-.5-3.03,1.12-7.14-.73-9.85-2.81l2.39-2.91c-5.57,1.34-9.4-1.33-11.25-5.42,7.11,1.63,13.26,2.47,18.73-1.49-.91-2.4-3.1-2.19-4.27-3.48,4.08-.08,8.67-3.63,7.1-7.07-1.43-1.87-4.84.63-6.34.74-.74.05-1.55-.01-2.38-.19-2.5-.49-5.21-1.79-6.95-2.88l2.58-2.41c2.47-2.33-7.03-.57-10.57-4.53l.91-.99c3.6,1.12,5.67-1.19,8.54-1.87.55-.13,1.14-.2,1.72-.24,2.24-.18,4.48-.15,5.47-2.93-.94-.97-2.04-2.07-2.17-3.45.84-.25,1.65-.56,2.42-.9,2.37-1.04,4.23-2.47,5.35-3.89,1.37-1.76,1.64-3.53.43-4.7-1.08-1.03-2.42-1.25-3.95-1.1-4.19.42-9.72,3.64-14.64.08-.57-.4-.23-3.16-.91-3.16-2.42.03-4.01,1.77-5.25.86-.5-.36-.6-2.07-.81-2.8-1.43-1.57-3.65-1.67-4.69-4.14,8.83.73,16.04-2.42,14.14-4.59l-2.16-2.45c2.89-.73,4.86-1.92,5.68-3.59.83-1.66.25-5.02-1.6-5.16-2.73-.2-5.54,2.34-8.02,1.33l-2.94-2.65c-.73-.66-2.44.21-4,.81-.04-2.41-1.34-4.28-2.69-4.93l1.01-.89c2.54-.34,5.45-.44,7.19-2.84.48-.67-1.04-2.54-1.76-2.91,3.23-1.48,5.05-3.57,5.3-6.84.09-1.12-.54-2.17-1.17-2.64-2.75-2.03-5.42,4.02-10.62-.7,1.36-.52,2.53-1.98,2.39-3.21-2.16-.98-4.13-1.16-5.17-3.49,2.65.06,4.58.17,6.92-.59.1-5.49,6.07-7.11,3.44-10.03-2.25-2.49-5.19,1.8-6.98.13-1.48-1.38-2.56-2.11-4.48-3.07,4.55-2.08,7.42-5.63,6.62-10.07-2.35-.06-4.09.43-6.55-.37,1-1.59,1.68-2.78,2.14-4.22.26-.86-1.66-2.22-1.87-3.23l-3.33-15.83c-.68-3.23-.83-7.16-3.88-9.29-3.88,8.36-3.86,16.73-6.12,24.92-.53,1.98-2.64,3.36.15,5.67.66.57.49,1.83-.2,2.21-.65.34-1.34.52-2.16.03-1.81-1.09-3.44-.68-4.14.81-.9,1.98,2.67,6.32,5.72,9.5-3.36,6.04-9.37.28-11.19,3.21-.48.78-.5,2.63.52,3.49,3.95,3.28,2.2,7.03,9.06,6.51-.32,2.2-2.89,2.54-3.6,3.67.11,1.56,1.72,2.21,3.34,2.96-5.39,5.39-10.83-.49-12.43,3.49-1.42,3.46,3.32,4.63,3.16,5.34l-.63,3c1.62,2.89,5.89,3.02,9.07,2.42.39,6.27-9.36,1.74-4.9,8.38-3.91,2.65-8.8.57-13.28-.34-1.85-.38-3,2.51-2.63,3.63.5,1.53,4.64,7.29,4.71,7.31.99.49,2.97.54,4.55.31.61,1.05.26,2.32.21,3.38,3.55,1.91,6.49,1.03,10.87,1.39-4.48,6.56-13.81,2.16-13.13,5.78.29,1.58,2.89,2.32,4.64,3.02-5.35,5.34-14.64,2.81-21.67-1.64-5,.15-9.81.42-14.17-1.8-.69-.34-1.35-.75-2.02-1.22.41-.58.75-1.74.72-2.53-.02-.34-.08-.6-.23-.73-6.15-5.54-14.85-4.06-18.05-9.09-.18-.3-.36-.62-.51-.98.83.41,1.63.75,2.41,1.07,4.84,1.92,8.88,2.23,13.72,2.42,3.86.17,8.63.34,10.16-4.27.14-.97-2.03-2.58-2.89-3.44,7.11-2.21,12.71-6.38,10.41-9.87-2.46-3.7-6.51-.94-13.4-1.44-2.38-.18-5.11-.75-8.23-2.11-.28-.13-.57-.23-.86-.31-1.88-.54-3.96-.44-5.45-1.53,1.64-.91,2.64-1.28,2.93-1.95.43-1-.42-2.01-1.17-2.64-2.15-1.85-4.57-.46-6.85-.65-2.14-.2-3.75-2.83-4.9-3.79l1.28-1.02,8.17,1.51c3.33.63,7.45-.76,9.71-3.31,1-1.14-.68-3.36-1.79-3.91,2.79-1.51,4.87-2.03,6.71-4.01,1.38-1.5,1.52-3.49.16-5.12-2.45-2.92-10.75,4.32-13.99-4.12-2.59-.02-5.91.65-8.11-.18l.56-3.68c.16-1.12-1.77-1.56-3.98-2.33h-.02c-2.5-.86-5.36-2.12-5.94-5.22,4.74,1.77,8.78,3.5,13.36,1.86l-.11-1.91-.23-4.01c4.17,3.25,8.59,4.61,12.81,1.69l-.8-3.9c4.44-.6,8.2-2.65,10.33-6.72.81-1.54.65-3.2-.5-4.29-3.04-2.82-9.06,1.63-14.84.38-.86-.18-1.72-.49-2.57-.98-.94-.53-1.72-1.15-2.51-1.67-1.3-.88-2.68-1.51-4.84-1.22-1.4.2-3.25-.4-4.14-1.6l3.46-1.5c.95-.42,1.83-2.47.55-2.84-4.21-1.23-8.46-2.06-10.81-5.44l.63-.81,11.33-.11c1.84-.02,3.3-.3,4.25-1.32,1.06-1.13,1.32-2.76.85-5.05,4.25-1.08,8.18-3.29,8.91-7.81.21-1.23-.47-2.69-1.2-3.11-2.61-1.53-9.35,6.09-14.3.87-1.11-1.15-1.46-3.26-4.17-2.63-2.49.59-5.15-.42-5.57-3.55,3.57.49,6.08-.72,7.82-3.61,4.58.12,7.81-2.66,7.83-7.37l-14.26-.26c-1.91-.03-3.76-1.39-5.34-2.48,3.41-.37,5.98.47,8.46-1.27l1.98-3.54c3.9-.55,7.21-2.45,8.52-6.29.51-1.43-.26-3.01-1.28-3.67-.73-.47-2.29-.69-3.42-.05-4.91,2.74-14.83.03-14.29-3.77,3.08,1.12,6.92-2.82,5.29-4.27-2.58-2.29-7.09-2.01-8.6-5.91,2.32-.21,7.06-.42,7.64-2.68,1.42-5.42,3.67-4.43,5.41-8.6.54-1.28.31-3.91-2.05-3.65-1.73.19-4.83,3.05-7.04,1.3l-5.29-4.16c6.38-1.49,9.95-10.85,6.62-11.74-1.74-.47-6.12,1.54-7-1.48.88-1.41,2.89-3.58,3.18-5.14.33-1.69-2.04-3.05-2.33-4.74l-4.76-26.42c-.19-1.02-1.2-2.5-2-2.33-.65.14-1.75,1.68-1.9,2.54l-4.93,26.97c-.91.67-2.76,1.71-2.86,2.83-.23,2.69,1.92,4.61,3.7,6.67-2.29,1.44-4.64,1.13-7.19,1.1-1.3,0-1.67,2.58-1.01,3.38l2,2.35c1.82,2.15,2.39,4.82,6.07,5.36-.86,3-3.1,2.35-5.4,2.81l-7.1,1.38c-4.79.94,3.36,7.17,3.3,7.68l-.38,2.87c1.35,2,4.57,2.21,7.52,2.99-1.04,3.42-4.04,4.24-7.24,5.62.67,2.69,2.99,4.02,5.59,5.16-.3,3.13-3.53,2.84-5.72,3.65-2.39.86-3.9,2.35-6.59.65-1.69-1.07-4.5-.62-5.07,1.64-.81,3.3,1.66,6.32,5.91,7.44.62.17,1.27.3,1.95.38.7.88.7,3.45,2.14,3.87.65.19,1.32.32,1.97.42,3.88.63,7.19.07,5.18,1.59l-1.4,1.07-9.02,4.03-2.68,1.2c3.21,3.62,7.2,4.22,11.86,4.98-2.59,1.47-3.06,3.64-4.1,6-.91,2.06-4.27.81-5.72.56-2.03,2.24-4.09,4.91-8.02,4.21-.1,4.15,4.24,7.56,9.13,6.3l.3,4.62c2.24.73,3.95.46,6.38.15-2.02,4.32-5.81,6.33-10.48,5.78-.77,1.57-1.14,2.68-2.49,3.99-3.16-.74-6.8-3.19-9.96-3.11-5.61.16-9.21-1.14-13.32-4.55-3.18-2.65-8.23-3.93-10.42-7.76,5.37.94,11.06.34,12.32-4.54-.65-2.44-5.32-3.38-8.03-3.93,3.02-1.72,6.31-.49,9.92-1.04,2.24-.33,6.16-2.31,5.71-5-.41-2.45-4.4-3.17-5.97-5.98,3.94-.29,7.79-2.19,9.02-6.05.46-1.43-.42-2.81-1.13-3.28-.91-.6-2.28-.91-3.62-.73-3.88.52-6.37-1.5-9.52-3.15l-5.47-2.88c3.51-7.74-9.42-4.74-9.5-14.53,4.79,2.59,8.72,4.5,13.38,3.84,2.57-.38,3.61-2.42,3.78-5.33,3.98,3.6,9.71,5,13.3.75,1.06-1.24-.86-3.56-2.48-4.58.55-.18,1.08-.36,1.62-.55,1.27-.46,2.48-.96,3.62-1.58,2.08-1.09,3.9-2.56,5.16-4.8.08-.13.15-.25.21-.38.88-1.67.07-3.57-.82-4.31-2.18-1.86-5.93-.75-9.84-.07-3.28.57-6.68.84-9.37-1.15-2.53-1.87-3.86-3.38-7.53-2.66-.12.01-.25.03-.38.03-1.38-.08-3.32-1.8-3.68-3.31,1.44.06,3.42-.38,4.69-1.35.8-.57,1.3-1.37,1.2-2.36-.08-.89-.65-1.55-1.54-2.11-3.83-2.42-13.67-2.76-15.91-9.83l10.6,3.11c1.71.51,3.47-.79,4.14-2.21.52-1.08-.54-2.69-.26-4.82.63.64,1.32,1.2,2.03,1.68,3.25,2.24,7.24,2.79,10.21-.13.94-.95.59-3.43.42-4.86.31-.11.62-.21.91-.34,3.62-1.33,6.45-3.15,7.78-6.77.58-1.57-.05-3.25-.89-4.01-1.85-1.69-5.05.02-9.34.78-1.43.26-2.99.41-4.66.31-1.64-.12-3.39-.49-5.26-1.27-.89-8.68-8.21-1.38-11.33-6.04,7.08-5-3.25-3.6-6.59-10.53l9.95.87c2.71.25,3-2.94,3.18-4.98,1.66-.07,4.19.45,5.88-.05,1.77-.54,1.85-3.05,3.39-4.37,1.87-1.6,4.45-2.45,5.15-5.19.36-1.46.03-3.25-.97-3.9-3.28-2.09-9.94,3.56-13.77.52-2.11-1.67-3.41-3.33-6.5-1.98-1.25.54-3.39-1.72-2.46-2.32,1.94-1.23,5.47-1.66,5.99-4.25.74-3.69-9.73-1.04-11.03-7.28l7.15-.14c4.35-.08,3.34-4.01,4.64-5.31,2.5-2.55,6.35-3.23,6.98-7.5.18-1.19-.21-2.58-.96-3.12-.47-.36-1.96-.88-2.64-.52-3.59,1.85-6.12.91-9.82.78-.54-.03-1.5.19-2.31.15-.57-.04-1.06-.2-1.32-.67-.34-.62-.89-1.98,0-2.73l1.86-1.52.64-.55-4.41-3.04c2.08-.68,6.57-.46,7.32-2.99.62-2.14-.71-4.32,2.22-6.23.98-.65.83-3.1.3-3.93-1.16-1.8-7.83,1.15-13.67-1.77,2.84-2.42,6.75-4.82,5.63-7.68l-3.46-8.78-5.22-26.97c-.22-1.13-1.4-2.34-2.23-2.17-.52.11-1.44,1.33-1.57,2.04l-5.21,28.12c-1.42,1.93-4.62,2.96-3.77,6.43,1.59,6.53,5.62,6.9,4.63,9.09-.41.86-4.79,2.19-10.12,1.43-1.61-.23-2.71,2.86-1.95,3.9l2.23,3.03c.91,1.25.65,3.48,1.75,4.24.76.5,3.31.63,3.86,1.35.61,1.54,2.31,3.65,2.67,4.9.71,2.55-4.37,2.27-5.64,3.13l-3.73,2.52c-1.69,1.14-5.54-3.02-8.41-1.58-.73.36-1.67,1.43-1.46,2.72,0,.08.02.17.05.26,1,3.65,4.02,5.87,7.58,6.99l.79,4.56c2.6,2.55,7.41,1.19,9.55,2.37,1.35,4.6-3.16,3.97-8.94,5.54.58,1.82,2.06,2.92,3.31,3.77,1.54,1.04,2.73,1.69,1.47,2.79-1.81,1.59-5.27-1.06-6.98.78-.97,1.05-1.9,1.56-2.79,1.74-2.95.61-5.58-2.21-8.02-1.09-.92.42-2.69,1.7-2.47,3.18.59,3.57,2.91,6.32,6.06,7.76,1.67.8,3.57,1.22,5.57,1.2-.05,2.45.4,4.63,1.78,5.23,3.74,1.62,8.72-2.39,9.34.91.21,1.12.08,1.91-.28,2.53-1.26,2.21-5.34,2.14-6.36,7.47-2.89-1.77-6.48-2.08-8.09.73l.56,3.52c-1.71,1.07-4.6,3.15-6.89,2.49-3.26-.95-7.04-.07-9.8-1.04-2.84-1.01-4-2.58-7.57-1.74-5.86,1.4-14.07,2.01-19.25-1.8-4-2.94-7.19-7.65-13.01-6.48-3.11.62-7.29.49-9.12-2.6,3.72-8.88-14.25-7.9-11.82-20.34l11.2,6.17c2.34,1.3,5.04,1.79,6.85.28,1.69-1.42,2.34-3.45,2.73-6.66l8.23,6.01c4.09,2.98,10.62,1.34,14.42-1.89,1.88-1.6,2.43-4.25.73-5.84-1.85-1.77-4.01-2.74-5.65-5.62,13.55-1.04,26.2-11.35,20.52-17.01-4.32-4.3-13.17,6.05-33.98-.51-4.55-1.42-9.38-2.24-12.91-6.07,4.76-.32,11.68-1.46,12.46-6.3.5-3.11-5.95-3.99-8.3-3.31-6.61,1.95-11.19-5.81-20.24-8.47l-1.17-9.35-.02-.12.13.05,7.68,2.68,6.01,3.2c2.72,1.44,6.73.55,7.77-2.4.42-1.19.07-4.49,1.77-4.91l10.86,4.26c4.27,1.67,10.13,1.38,12.83-2.75,1.07-1.64-1.56-4.14-2.39-5.11,9.45-2.55,17.31-9.14,14.24-13.69-1.28-1.88-3.7-2.79-6.14-1.93-10.45,3.72-21.74,3.05-31.2-2.34,3.83-1.46,7.74-2.72,7.7-6.08-.1-7.72-14.62-1.6-18.97-3.87-4.06-2.11-6.95-5.78-11.6-6.44-.12-3.58-.52-5.82.26-9.19l14.09,6.43c1.59.73,3.7-.28,4.54-1.3,1.93-2.34-.57-6.29.52-7.03,1.85-1.24,7.47,6.41,14.08,3.78,1.72-.68,3.52-2.3,3.44-3.99-.07-1.25-1.88-2.24-2.74-4.31,5.68-1.08,10.53-3.53,13.08-8.34,1.09-2.06.49-4.79-1.33-6.15-3.39-2.57-13.13,5.44-24.66,1.08.44-2.17.47-4.07-.46-5.37-1.34-1.91-3.91-2.22-6.9-1.44-1.7.43-3.53,1.25-5.35,2.32-.16-2.29-.77-3.95-1.61-5.2h0c-2.55-3.73-7.21-3.78-8.41-6.13-.79-1.56-.49-5.3.83-5.31,4.15,1.31,7.73,3.29,12,2.17l2.17-3.7.57-.96c.42.13.84.25,1.27.34,3.7.9,7.43.8,10.21-1.62.19-.18.31-.42.37-.71.02-.07.02-.13.03-.2.1-.94-.27-2.21-.56-2.92,4.31-1.32,7.85-3.64,9.78-7.71.85-1.76,0-3.65-1.03-4.52-1.34-1.1-3.04-1.15-4.87-.37l-11.55,4.92c-1.18.5-2.43.76-3.73.84-3.09.22-6.35-.48-9.32-.81l-1.56-5.91c3.17.05,5.73-.91,6.98-3.32.46-.91-.11-1.77-.6-1.97-3.49-1.46-8.67,1.61-12.19-4.45l1.43-.91c7.76,1.97,14.84-.79,14.53-3.84-.16-1.69-3.43-3.8-.83-4.1,4.22-.48,8.04-3.88,7.92-8.13-.06-2.3-2.37-3.36-3.81-3.34-3.18.06-7.23,5.52-15.04,2.14-1.57-2.11-1.8-4.89-6.2-4.43-1.38-.44-.71-3.41,1.5-1.92,3.6-.84,8.26-3.6,9.38-7.29,1.04-3.37-4.04-1.3-10.7-4.43,1.49-2.66,4.17-2.89,6.22-2.56,4.11.68,4.07-2.65,5.6-4.55,2.18-2.69,6.36-3.65,6.61-8.07.06-1.3-.59-2.6-1.53-3.08-2.6-1.32-5.23,2.04-14.82,2.12l-2.21,1.24c-.4.22-1.23-.59-1.83-1.33l-2.89-3.64c2.16-.94,5.97-1.28,6.93-3.25,1.51-6.07,8.16-9.48,4.89-13.5-1.04-1.27-3.22-1.58-4.99-.61-.96.54-1.98.95-2.97,1.24-1.21,3.58-2.38,7.17-3.5,10.77-14.36,46.08-20.86,94.09-19.33,142.69.18,5.63.46,11.25.86,16.86.17,2.47.36,4.93.58,7.39.56,6.53,1.27,13.05,2.13,19.54.33,2.56.69,5.11,1.08,7.66.84,5.66,1.8,11.31,2.88,16.93.68,3.6,1.41,7.19,2.18,10.78.45,2.1.92,4.19,1.41,6.28,1.57,6.8,3.3,13.56,5.21,20.29.98,3.52,2.01,7.02,3.09,10.51,1.17,3.78,2.38,7.55,3.65,11.3.72,2.12,1.45,4.24,2.21,6.35.86,2.46,1.76,4.91,2.67,7.35,9.81,26.19,21.72,51.01,35.68,74.34l6.46,1.14c2.71.47,5-.19,7.18-1.77,2.17,2.89,4.98,4.11,7.87,4.19,3.54.1,5.99-3.09,8.3-5.33,2.95.75,7.01,4.39,10.94,3.14-1.11,3.46-4.22,2.82-5.47,4.46l-5.72,7.55c6.12,2.44,11.56,1.2,17.88,1.04-4.05,3.95-8.61,4.89-12.55,7.16,3.5,4.16,7.48,5.32,12.61,5.68-4.32,3.54-8.2,4.97-12.78,7.4l-19.36-10.78c9,13.06,18.7,25.6,29.08,37.57.92-.22,1.82-.41,2.67-.5-.44.69-.91,1.33-1.42,1.93,3.96,4.55,8.03,9.01,12.21,13.39.41.44.83.88,1.25,1.32,2.08,2.17,4.19,4.32,6.33,6.44,33.82,33.84,72.41,61.02,115.06,81.09,8.79,4.14,17.75,7.98,26.88,11.51,6.11,2.36,12.23,4.55,18.19,6.51l.26.09.26.09c19.94,7.38,38.98,13.1,57.31,17.22,23.76,5.33,46.33,7.95,68.13,7.95.94,0,1.87-.01,2.82-.02,4.27-.04,8.5-.11,12.69-.19,1.66-.03,3.31-.07,4.96-.11.01-.12.03-.24.06-.36,4.33,0,7.98-2.5,9.33-6.46.47-1.35-.31-2.7-1.07-3.22ZM121.84,430.86c.02-.76.86-.97,1.25-.39l-1.25.39ZM220.68,665.74c-2.18,1.72-5.33,2.24-7.26,4.68-.66.83-.44,2.13.33,3.13v.02c.29.36.63.68,1.02.92-2.76,3.04-6.19,2.83-9.34,1.3-3.24-1.57-4.05,2.75-5.39,3.85-4.67,3.82-12.38-2.92-15.71.65-3.17,3.41,1.72,10.49,9.56,11.87l-1.17,4.12c3.54,2.32,6.85,1.51,10.82-1.04.3,1.9-1.09,5.98.79,7.08,4.58,2.65,12.05-3.04,13.61-2.16,2.14,1.22-1.79,4.38-5.88,7.36-1.37,1-2.76,1.99-3.96,2.87-.17.13-.33.24-.47.36-.9.68.3,2.93,1.64,3.47-2.52,4.07-7.03,4.97-11.89,4.09-2.55,2.97-5.94,3.77-9.28,2.1-3.98-1.73-7.26-3.97-10.9-7.23,7.55-.91,17.37-2.99,20.34-10.19-4.41.13-7.76-1.29-11.57-2.44l-16.8-5.16-.73-4.79c-4.19-2.94-8.74-4.5-14.01-4.22-5.49-4.4-10.65-8.95-13.67-16.3,11.44,4.53,26.21,10.05,29.67.08l-9.15-11.79,15.91-.37c6.44-.15,11.91-4.25,15.45-9.69l7.39,7.92c2.84-.21,4.77-.75,7.69-.29-.22.65-.39,1.26-.48,1.83-.3,1.56-.12,2.84.74,3.74,1.32,1.36,3.2,1.91,5.2,1.15l7.21-2.71c.78,2.25.95,4.51.29,5.79ZM273.9,790.51c-4.08.69-8.35-1.53-9.74-5.83,3.76,1.1,6.6,2.25,9.74,5.83ZM283.8,826.55c1.69.27,3.54-.04,5.89,1.83-2.34,1.71-4.82.52-5.89-1.83ZM295.54,800.64c-.13.22-.28.44-.43.63,0,.02-.01.03-.01.03-4.71,6.59-13.04,1.74-16.38,5.46,1.04,3.41,5.1,4.8,8.07,6.07l-2.73,4.9c2.9,2.91,6.33,1.51,10.29,2.76l-14.82,3.61-8.99-7.91,5.79-.08c1.33-.02,2.16-1.53,2.13-2.49-.08-2.9-9.99-6.47-14.99-13.19,8.67,1,14.55.69,18.07-6.89,2.15-4.64-8.98-4.8-7.74-10.14l2.29-1.47c.42-.27.01-1.6-.49-2.8,4.29-.22,8.02-.39,11.92-2.85-.85,2.39-2.76,3.04-4.79,4.81,1.82,3.78,5.47,3.07,9.36,2.65-1.33,2.06-3.86,5.09-3.14,7.48,3.66,2.22,8.5.73,12.61.31-2.94,5.91-11.95,5.37-6.02,9.11ZM331.71,762.06l-1.33.31c.03-.81.95-1.04,1.33-.31ZM338.74,825.3c.18-.26.5-.36.79-.25.18.05.33.18.44.39l-1.4.36c0-.21.07-.37.17-.5ZM357.42,886.97l-.79.77c-.98-.7.21-1.69.79-.77ZM392.41,904.78c1.52.73,2.4,3.57,5.53,3.12-1.44,1.23-2.45,1.49-4.05,2.32-13.74-5.06-25.33-13.51-36.78-22.11l.69-.73,6.64,1.35c3.47.69,8.16,1.33,11.02-1.55.92-.95-1.67-3.37-2.83-3.99l8.69-2.7c1.85.61,3.99,4.13,7.09,3.25-.63,1.76-.97,2.53-.82,3.3.45,2.3,3.73.87,9.45,3.86,1.44.75,4.23-.7,6.16-.27-5.26,5.17-14.66.95-21.51,5.4,1.87,4.87,6.35,6.67,10.72,8.75ZM438.29,892.48l-1.5.32c.02-.89,1.08-1.17,1.5-.32ZM429.03,841.99l-1.33.39c.03-.83.93-1.03,1.33-.39ZM509.3,890.15c.14-.79,1.04-.94,1.48-.37l-1.48.37ZM600.28,914.18c-.93-1.25-3.01-1.22-4.5-.44-2.71,1.42-4.27.23-6.75-.69-1.66-.62-4.39.04-5.09-2.33,1.69-1.39,4.32-1.78,5.22-3.18-.02-3.2-5.82-.76-7.88-5.37,2.18-.16,6.04-.36,6.71-2.47.65-2.09-.05-3.52,2.82-4.72,1.01-.41,1.72-2.5,2.08-3.38.29-.73-.7-2.84-1.75-2.74-3.92,1.54-8.15,1.7-11.14-2.36,3.36-1.77,6.41-5.1,6.53-8.73.08-2.32-5.72-.07-7.13-1.72-1.19-1.38,3.02-4.68,1.91-6.17l-1.85-2.52c-2.09-8.23-2.48-16.44-6.54-25-4.33,8.07-4.07,16.95-5.96,25.5-.27,1.24-2.25,2.54-2.14,3.56.26,1.98,3.73,4.59,1.33,5.03-2.66.49-4.8-1.52-6.33,1.01-.31.52,2.81,8.46,7.74,8.83-3.91,4.5-8.37,2-12.46,2.78-4.86.91,4.02,8.1,4.02,8.1l-.6,3.11,8.51,2.49c-2.13,2.86-4.95,3.07-8.3,4.11,1.32,2.53,3.67,2.9,5.77,4.28-1.56,2.37-4.24,1.25-5.61,1.53-2.38,2.25-4.74,2.99-7.82,1.31-1.56-.86-4.89-.27-4.69,1.97.34,4.15,4.15,6.26,7.82,6.8-.78,1.61-1.99,2.24-2.03,2.94-.05,1.25,7.65,3.72,13.59,2.43-2.17,5.72-11.77,3.14-11.33,6.76.04.34.36.67.86.97,13.53-.59,26.63-1.41,39.3-2.47,0-.1-.02-.2-.06-.29-1.25-2.68-7.32.6-10.21-4.97,4.35.93,9.38-.06,12.48-3.02-.11-1.07-.97-2.93-.29-3.49l2.78-2.24c1.67-1.33,2.06-3.75.99-5.21ZM889.97,730.02c.65.68,1.51,1.12,2.5,1.36.27-.08.57-.16.86-.26-.99-.26-2.1-.63-3.36-1.1ZM710.69,895.43c-1.33-3.25-5.34-.23-7.26-.58l-9.06-1.66c-.19-1.98,1.32-2.4,2.52-2.92,1.46-.65,1.77-2.16,1.17-3.07-1.27-1.87-7.18.02-8.9-4.33,4.5.66,6.43-.56,8.09-2.83.56-.78,1.1-1.7,1.7-2.71,1.14-1.92,5-5.67,1.48-7.73-2.37.28-5.25.59-7.89,0-2-.42-3.85-1.36-5.25-3.18,2.54-1.01,4.55-2.71,5.72-4.81.84-1.47,1.25-3.15,1.14-4.9l-2.05.02-5.57.05c3.31-3.64,1.77-5.23.78-7.99-2.74-7.62-2.03-16.22-6.77-23.78-4.24,7.87-4.04,16.44-6.31,24.22-.85,2.87-1.68,4.54.38,8.24-3.24-.55-5.06-.95-7.43.49,1.49,4.45,4.27,6.97,8.12,9.16-8.23,5.44-12.5-.13-13.67,3.49-.88,2.73,1.75,5.71,4.74,6.48l-.75,3.99,8.18,2.6c-2.53,2.56-5.39,2.4-8.47,3.54,1.28,2.48,2.94,3.03,4.43,4.7l-7.01,2.55c-2.1.75-4.35-.55-6.2-1.2-2.2-.75-3.56.85-3.95,2.5-.89,3.78,3.26,5.99,7.94,8.75-1.02.42-2.18.42-3.39,1.48,3.88,3.49,8.28,3.41,13.7,3.38-5.15,6.41-16.17,2.11-8.52,7.92-9.26,5.4-16.74-1.71-19.28,2.32-1.43,2.28.79,5.54,4.58,7.64,15.18-2.3,29.65-5.02,43.47-8.15,4.53-1.03,8.99-2.1,13.38-3.22.49-.72.61-1.5.2-2.05-1.25-1.67-4.48-.66-7.45-1.35-1.59-.37-3.12-1.21-4.24-3.21,2.1.21,4.01.24,5.77.02,2.82-.38,5.26-1.43,7.43-3.53-.78-1.12-1.67-1.8-1.62-3.33.58-.04,1.2-.21,1.78-.45,2.84-1.12,5.36-4.11,4.34-6.56ZM889.97,730.02c.65.68,1.51,1.12,2.5,1.36.27-.08.57-.16.86-.26-.99-.26-2.1-.63-3.36-1.1ZM1026.82,537.23c-.5-.47-1.08-.78-1.72-.96-1.34-.37-2.95-.13-4.54.51-7.7,3.11-15.77.13-22.11-4.31,1.23-.99,1.52-1.8,1.75-2.63.94-3.42-8.88,3.06-13.93-3.76,2.01-.52,5.7-3.27,4.84-4.92-2.58-4.94-9.55-5.55-14.58-3.87l-1.25-13.75c6.3,1.3,12.57,8.61,17.73,5.67,2.45-1.41,1.49-5.54,1.02-7.78,2.68-.79,4.35.9,6.22,2.13,4.51,3.02,10.47,3.83,14.35-.37,1.38-1.5-.03-4.01-1.75-5,4.9-2.07,9.32-3.54,11.9-7.63.14-.2.27-.43.39-.64,1.17-2.14,1.18-4.8-.41-6.57-.13-.15-.28-.29-.44-.41-4.09-3.28-13.29,4.95-25.5.29-.28-1.64-.46-3.55-1.07-4.48-3.1-4.49-8.51-1.93-12.11-.58-2.34-4.01-5.18-8.93-10.49-9.77-.55-2.6-.86-4.68-.08-6.63l9.59,2.45c2.06.52,4.11-.52,5.18-1.86.89-1.11.97-2.7,1.1-5.15l9,1.3c3.81.55,3.59-3.52,4.71-4.79,3.13-2.26,7.22-2.71,8.66-7.11.57-1.72.83-3.36-.42-4.81-3.68-4.25-8.42,4.39-25.42.65-.76-.16-2,.08-2.44-.22-.61-.46-.63-1.45.18-1.94l1.43-.84c1.07-.62,1.66-1.58,1.62-2.37-.03-.67-1.07-2.11-1.99-2.08-5.77.21-12.29-3.38-12.39-3.78-.32-1.19-.62-2.45,0-3.98,6.85,2.87,14.66,1.51,15.28-1.49.26-1.29-.21-2.62-1.17-4.5,4.43-.97,8.26-3.21,9.33-7.86.34-1.47-.27-3.05-1.02-3.68-3.23-2.75-8.94,3.2-13.91-.57,1.74-1.36,2.74-2.92,2.43-4.25-.79-3.49-5.37-.59-9.38-5.17-.97-1.1-3.17-1.49-3.36-4.4,7.5.78,16.92-3.13,16.92-4.18-.02-.64-.91-2.33-.31-2.67,3.33-1.56,6.3-3.86,7.48-7.45.55-1.66.11-3.15-1.05-4.09-3.04-2.45-9.5,3.8-14.6,1.05-1.91-1.02-2.79-3.13-6.15-1.65-.72.31-2.1-.1-2.6-.88-1.85-2.89,5.86-2.19,6.75-4.54,2.2-5.8,8.19-9.4,4.08-12.67-1.8-1.41-3.77.36-5.99.51l-5.12.32c-1.16.08-1.98.25-2.17-.27-1.58-4,4.87-5.54,5.24-11.42.12-1.67-1.69-2.76-3.24-3.37l-6.63-33.35c-.27-1.36-1.44-2.66-2.47-2.61-.82.03-2.28,1.41-2.51,2.59l-6.22,33.19c-.26,1.36-3.02,2.69-2.76,3.99,1.2,5.78,6.14,7.21,4.95,9.6-.87,1.77-5.81,2.2-7.53,1.08-2.34-1.52-4.48-1.8-5.99.17-.99,1.26-.89,4.35.79,5.65,4.92,3.78,1.85,8,10.57,9.69-1.34,3.65-4.98,4.51-8.39,2.32-2.71,2.52-5.44,2.35-8.2.45-1.83-1-3.93-1.18-5.23-.11-1.23.99-1.99,2.82-1.25,4.59,1.63,3.82,5,5.99,9.16,6.69-.6,1.32-.97,2.75-.47,3.59,1.44,2.47,8.28,1.22,13.2,4.5l-10.68,6.17c1.8,3.6,4.72,3.94,8.19,6.13-4.62.78-7.43,1.19-10.05,4.53l-8.52-2.69c-1.57-.51-3.33.78-3.91,1.65-1.97,2.99,1.82,10.28,9.8,10.91-1.1.88-2.8,3.33-1.91,4.18,4.33,4.15,10.19,3.58,15.62.95.68,1.11.87,4.05-.25,4.91-6.6,5.03-11.88.35-14.22,4.22-.66,1.09,1.51,3.1,2.78,4.33-12.84,7.21-23.85-4.17-27.02,1.2-2.32,3.92,1.27,8.53,7.44,10.51.7,1.65.97,4.22,3.21,4.62,6.45,1.21,9.87-2.66,10.83.3.62,1.91.72,3.75,2.23,4.88,1.29.98,3.06,1.27,5.04.64l8.32-2.67c.35,2.91.45,5.77-.41,8.75-10.21,1.71-7.69,9.4-10.63,9.81-1.43.21-5.23-4.25-10.07-1.59-1.93,1.07-2.43,3.49-2.21,6.25-8.34,2.09-14.88-.62-19.57-1.66-3.07-.68-5.35-.65-6.81,1.95-.37.67-.6,1.35-.68,2-.16,1.13.1,2.22.68,3.26,2,3.57,7.86,6.43,14.03,7.84-1.64,1.81-2.87,2.75-2.91,3.87-.03,1.12,1.19,2.58,2.36,3.18,7.81,3.93,12.81-4.84,15.32-2.71.15.11.28.27.41.47.89,1.36-2.31,3.91-.91,6.1,1.56,2.47,6.66,2.58,11.17.1,3.05-1.67,5.42-3.46,9.06-4.48l-.31,9.37c-8.23,1.13-9.66,7.94-19.09,5.57-3.38-.87-10.3-.26-10.8,4.17-.37,3.37,5.67,4.69,8.25,5.89-3.54,1.9-7.31,3.05-11.11,3.75-1.52.29-3.06.5-4.59.67-.39.05-.78.08-1.17.11-7.65.7-13.1-3.02-16.93-2.37-1.24.19-2.29.84-3.2,2.24-2.82,4.3,4.84,11.72,14.47,13.18-1.68,1.67-4.24,3.56-3.33,5.64,1.38,3.16,6.15,4.2,9.1,3.08l12.83-4.85c3.52-1.35,2.42,4.31,2.65,6.15.01.15.04.29.09.42.88,2.91,6.64,2.18,8.9.63,4.03-2.71,7.45-4.39,12.58-4.7-.1,3.34-.23,5.81-1.09,8.62l-11.77,5.81c-3.37,1.67-6.36,3.34-10.47,2.66-1.7-.29-6.3,1.37-5.71,3.14,2.17,5.13,8.2,5.9,13.23,5.92-2.31,1.27-5.02,4.47-7.81,4.82-1.3.16-2.52.34-3.68.57-2.83.49-5.39,1.19-8.35,2.19-13.12,4.52-25-6.56-28.78.44-2.68,4.95,3.67,10.94,11.96,14.09,0,0,.02.02.03.02.9.34,1.82.65,2.76.91.02.01.04.01.05.01,1.87.56,3.82.93,5.73,1.12-.19.33-.4.62-.6.9-1.62,2.11-3.6,2.89-5.22,4.45-1.4,1.34-1.04,3.86.24,5.32.06.08.13.15.19.21.91.89,1.95,1.64,3.07,2.19,2.63,1.33,5.72,1.68,8.56.62,7.16-2.63,9.64-8.99,11.8-7.31,1.06.83-.7,5.56,2.22,7.78,3.43,2.6,9.39-.42,14.02-4.58,1.91-1.72,3.83-2.74,6.86-3-.06,3.6-.27,6.3-1.26,9.4-6.89,3.23-15.05,7.3-12.1,9.9l2.14,1.87-8.6,5.18s-.02,0-.02-.02c-7.4-4.38-14.35-.21-19.27,5.26-10.6,5.75-22.81-2.19-25.65,5.2-.83,2.17.51,4.82,2.34,6.51,4.72,4.33,10.93,4.66,17.47,6.65-1.61,1.37-4.5,4.22-3.51,5.62,8.31,5.32,17.6-6.69,19.5-2.94,1.75,3.49-2.86,6.32-3.82,8.67-1.12,2.71,1.4,4.43,3.88,4.9.67.15,1.32.18,1.9.13,10.13-.87,16.84-8.32,18.48-5.81,2.03,3.17-8.86,13.7-17.14,17.52-3.02-.91-6-.42-8.92.89-.84.38-1.69.83-2.51,1.33-.17.04-.34.07-.51.12-1.18.37-2.29,1.25-2.46,2.22-.17.88.37,1.98,1.05,3.17l-11.69,3.75-2.06.66c-3.3,1.06-4.81,2.94-7.26,4.84-3.31,2.58-9.53,3.07-13.2,2.27-1.67-.35-2.82-.99-2.92-1.8-.08-.62.81-2.08.05-2.87-1.66-1.71-4.66-.86-6.9.53.89-4.2-2.04-5.16-4.56-6.67-1.54-.91-2.94-2.03-3.22-4.24,2.18.77,4.42,1.17,6.47,1.27,4.05.19,7.27-.86,7.46-2.95.02-.15.02-.28.02-.43-.02-1.05-.45-2.04-.99-3.63,7.79.58,14.16-7.75,12.61-10.91-1.31-2.71-3.84-1.92-6.7-1.11-.16.05-.31.08-.46.13-2.43.65-5.04,1.19-7.35-.48-.67-.49-.36-2.91-1.12-3.17-2.27-.78-5.03.96-6.4.08-.16-.1-.3-.23-.43-.42-.36-.54,3.47-2.48,2.35-4.29-1.46-2.35-8-1.38-7.84-6.25,0-.44.06-.89.19-1.43,4.21,2.02,8.59,1.45,11.95-1.39l.38-4.24c3.57-1.01,6.7-3.2,7.85-6.85.46-1.48-.22-3.2-1.2-3.82-2.45-1.54-6.75,2.34-8.29,1.09l-3.15-2.55c-.99-.79-3.67.88-5.39-.3-.23-.15-.44-.36-.64-.64,2.5-1.31,5.15-1.98,6.25-5.14l-8.96-3.25c-.76-.28-1.7-1.85-1.52-2.52.34-1.28,4.56-.1,7.35-2.56.71-.64.78-1.77.81-2.86.02-.7,0-1.36.13-1.87,4.77-2.9,7.26-7.68,4.92-9.69-2.56-2.22-7.94,3.67-12.71-1.59-.29-.31-.57-.67-.86-1.07,5.45-1.9,7.79-9.86,7.01-11.02-1.69-2.6-6.05,1.73-8.13-1.66,1.64-1.97,1.95-3.96,1.78-6.01-.09-1.28-.39-2.56-.68-3.88l-2.25-10.58-.91-4.3-2.24-10.52-.26-1.24c-.18-.89-1.19-2.5-1.85-2.35-.64.13-1.92,1.56-2.07,2.4l-.48,2.73-1.25,6.95-1.19,6.64-2.08,11.59c-.4.45-.73.94-.97,1.43-1.28,2.58-.34,5.43,2.17,7.59-2.28,1.4-4.05.26-5.94-.09-1.59-.3-2.55,1.72-2.56,2.72,0,.69,1.22,3.51,3.07,5.95,1.29,1.72,2.92,3.24,4.64,3.65-1.02,3.1-3.57,1.82-5.52,2.25-2.27.52-3.33,1.97-5.68.33-1.24-.86-3.22-.39-3.95.55-2.09,2.68.8,6.71,5.67,9.09.14,1.42-.29,2.52-.52,3.75,1.09.86,2.19,1.48,3.38,1.97,1.68.7,3.57,1.12,5.86,1.6-1.16,5.61-12.28,5.1-9.4,7.73l3.7,3.4,3.2,2.93c-2.97,0-5.05-.43-7.11,1.4-.61.54-1.24.84-1.89,1.01-3.47.79-7.43-2.89-9.54-.05-.65.87-.96,2.89-.12,4.12l4.08,6.01,6.05,1.25c-.84,1.77-1.18,3.18-.78,4.01,1.06,2.16,5.77,1.74,10.26-.03,1.25,6.49-6.86,7.84-10.19,9.15-1.02.41-1.59.8-1.32,1.33l1.29,2.52c-3.01,2.58-6.25,1.95-9.23,1.09-3.47-1.03-6.57-2.36-8.45.74-.85,1.4-.34,4.1,1.34,5.65l2.41,2.23,2.74,2.55,7.29,1.3c-1.74,1.51-2.74,4.36-1.02,5.3.6.33,1.21.59,1.83.77.34.09.68.18,1.02.24,3.15.54,6.5-.5,9.76-1.78.34,1.16.29,2.11.02,2.92-.6,1.64-2.19,2.69-3.64,3.88-1.04.84-1.77,2.45-2.61,2.76-1.63.58-5.04-2.06-7.16.83-.49.63.26,2.48.32,3.57-10.5,5.65-18.31-3.59-21.87,1.54-.13.19-.24.39-.32.6-.91,2.09.45,4.79,3.17,6.79.51.37,1.08.73,1.7,1.05,1.14.59,2.42,1.06,3.82,1.35.08,1.59-.51,2.76-.98,4.2,1.66,2.24,4.09,2.89,6.32,2.37,2.16-.5,3.42-1.96,6.05-3.81.07,2.55-.58,4.46.51,5.73.94,1.09,3.14,1.28,4.61.7l8.97-3.57c.95,2.3.62,4.04.12,5.43-.54,1.47-5.62,1.68-7.68,5.35-.68,1.21-1.02,2.79-.78,4.91-3.36,1.32-5.44-2.43-9.06-.08-.02,0-.05.02-.06.04-.35.22-.49.56-.52.99-.09.91.34,2.11.37,3-1.32.84-2.58,1.44-3.8,1.83-9.22,3.15-15.8-4.35-18.64-.79-2.32,2.9,1.93,7.87,8.54,9.95-.87,1.41-1.46,2.84-1.23,3.77,0,.09.03.19.08.27,1.54,3.41,7.48,2,13.6-.05-.58,3.67-3.94,3.8-6.28,6.58,8.95,6.3,15.41-.81,22.18-.5l-8.22,9.04c-1.25,1.38-.35,4.35-2.32,4.79l-4.69,1.02c-12.84,8.82-20.34.94-23.77,4.32-.7.7-.87,1.61-.78,2.53.04.38.13.75.26,1.11,1.2,3.42,4.99,3.83,6.89,5.91,1.85,1.99,2.69,4.39,6.33,3.32,2.47-.74,5.57-.73,7.58.9l-6.82,7.84c1.15,1.04,2.35,1.82,3.6,2.37,4.29,1.95,9.11,1.46,14.52,1.1-2.97,3.98-6.71,6.04-10.81,8.05l-1.27,4.16-5.58,1.44-4.57,1.19c.78-7.87-5.58,1.12-13.24-2.92-.6-.31-1.22-.7-1.84-1.2,1.58-.99,2.5-2.5,2.1-3.59-.38-.99-1.84-1.09-3.77-1.32-2.81-.3-6.62-.87-9.35-4.8,3.55,1.09,6.88,1.02,9.69-.05.58-.23,1.14-.49,1.67-.8,2.53-1.44,4.55-3.83,5.8-7.01.66-1.72,1.87-4.59-.8-5.5l-5.79.52c-2.63-1.09-4.42-1.74-6.84-2.11,1.19-1.12,2.21-2.2,2.23-2.91.05-2.65-7.28-.71-7.94-4.94,2.76.04,4.43-.17,6.33-.92,1.2-.49,1.27-2.84,1.69-4.27,2.82-1.36,6.05-3.21,6.3-6.85.39-5.75-8.88,1.82-10.02-4.87-1.88-.86-3.7-.13-5.37-2.49,4.56-.5,5.79-2.64,7.63-5.95.78-1.38,3.16-4.91-.28-5.69-2.18-.48-5.81,1.14-8.26-1.25,2.03-2.04,4.2-4.44,4.25-7.19.03-1.78-2.79-2.27-3.54-3.15l-5.5-25.44c-.33-1.46-1.77-1.59-2.42-1-.31.27-.93.76-1.07,1.57l-.33,1.8-.92,5.17-2.71,15.22-.49,2.73-3.43,2.11c.12,2.05.85,3.65,1.95,5.23.57.81,1.24,1.61,1.97,2.47-1.43,1.73-3.12,1.91-4.68,1.75-1.9-.18-3.6-.83-4.38.31-.57.84-.47,2.43.24,3.46l4.24,5.97.19.08,4.27,1.97c-.6,2.48-3.34,2.37-4.92,3.11-3.1,1.45-4.23.98-7.17-.06-1.76-.63-3.4,2.06-2.75,3.62.41,1.01,1.17,2.92,2.54,3.52,3.84,1.71,2.45,5.54,6.47,7.24,1.09.47,2.6.78,4.71.83.26,4.61-6,3.28-6.54,5.05-.08.28.02.73.36,1.2.32.46.89.91,1.73,1.23-2.56,2.5-5.04,2.38-7.22,1.89-1.75-.39-3.31-1.02-4.53-.67-.62.16-1.15.57-1.59,1.38-1.62,3.04,1.82,5.67,6.43,8.01-1.04.82-2.42,2.95-1.82,3.49,2.03,1.81,4.46,2.29,7.06,2.46,1.71.13,3.51.13,5.31.31-2.52,2.67-5.41,4.69-7.87,6.09-1.38-.58-4.05-1.83-5.21.03-.69,1.07,1.51,2.6,3.44,2.89-1.17.93-2.32,1.53-3.44,1.9-.35.13-.67.23-.99.29-.02.02-.04.02-.05.02-5.96,1.38-11.14-2.99-13.49-.29-1.21,1.38-1.42,3.2-.54,4.84.26.48.58.94.94,1.33,1.74,1.98,4.47,2.94,6.88,3.75-.01,1.15-.4,2.66.17,3.18,2.79,2.63,5.47-.11,8.31-.44.08.23.16.68-.03,1.22-.88.63-2.36.7-3.28,2.74,4.15,1.74,8.54.98,12.68-.26.14,3.02-2.88,3.25-3.72,4.31-1.43,1.76-2.92,2.69-4.69,3.19-1.09.3-2.29.43-3.66.46-.32,1.46,1.12,2.6,3.19,3.46-7.72,5.39-13.12.87-16.42,2.14-.6.23-1.12.65-1.57,1.33-2.34,3.52,3.02,8,10.52,9.85-2.06,1.32-4.48,1.55-6.12,3.8-2.29,3.15,8.33,3.75,18.15,1.68-3.41,6.86-14.5,6.16-12.31,8.34l2.05,2.03c-2,.71-4,1.18-6.04,1.43-1.28.14-2.58.21-3.9.19-2.6-.03-5.26-.39-7.95-1.02-1.43-.32-3.25.39-4.26,1.53-.66.71-.99,1.62-.69,2.53,1.8,5.7,7.19,8.36,13.37,9.46-2.42,3.07-6.08,4.57-10.19,5.96.84,4.99,7.5,7.03,14.61,6.67,3.02-.16,6.12-.76,8.9-1.75.53-.19,1.05-.39,1.55-.62-.26.43-.55.8-.86,1.14-2.33,2.7-5.82,3.3-9.12,4.68l-11.43,4.79c.2.13.4.25.59.36,7.51-2.13,14.8-4.41,21.89-6.83,1.16-.4,2.33-.8,3.48-1.21.72-.25,1.43-.51,2.15-.77,10.35-3.7,20.36-7.75,30.07-12.19,11.26-5.14,22.13-10.79,32.69-17.02,1,.26,1.87.32,2.5-.51.19-.25.28-.64.31-1.15,20.37-12.25,39.59-26.63,58.29-43.53,2.51-2.25,5-4.56,7.49-6.91,4.38-4.15,8.63-8.33,12.73-12.52,34.83-35.54,59.83-72.08,75.21-97.63,19.37-32.19,29.99-57.35,33.75-68.52-1,.18-2.04.2-3.15-.03-3.15,2.21.28-7.03-4.27-8.26-2.42-.65-5.01,1.67-6.54,3.45-1.28.47-1.93-.78-1.4-1.88l-2.71-23.12,13.61,8.43c2.09,1.3,6,3.44,8.42,2.11,6.43-3.51-.83-12.26.68-14.45,1.79-2.6,6.77,3.51,11.84,3.93.31.03.63.02.93-.02,2.35-.26,4.38-2.21,4.62-4.01.28-2.09-.68-3.67-2.74-5.66-.18-.18-.37-.36-.57-.54.24-.06.49-.13.71-.21,2.73-.81,4.55-1.88,5.1-4.43l2.16-9.76c.31-1.43-.79-2.73-1.83-3.16-.57-.25-1.46-.07-2.63.24-4,1.07-11.19,3.85-19.58-2.31.42-2.09.18-4.23-1.14-4.98-3.34-1.9-8.02.83-11.61-1.93,1.27-6.89-4.01-11.22-10.55-11.98l-.44-9.09c-.05-.93.99-1.19,1.51-.52l15.05,8.02c2.03,1.08,4.52,1.08,5.88-.15,2.58-2.37.71-6.87,1.9-7.45,1.15-.59,7.6,8.02,15.18,4.98,2.16-.86,4.11-2.43,4.19-4.43.08-1.7-1.21-3.21-3.01-5.41,2.41-.65,4.66-1.36,6.5-2.53,1.73-1.1,3.07-2.6,3.76-4.8.75-2.41.18-4.81-1.43-6.32ZM803.89,856.39l-.52.61c-1.65,1.98-1.85,3.41-4.28,4.94-6.76,4.22-15.44,9.89-18.38,4.37,3.81.4,7.21.43,9.63-2.57-1.69-1.75-3.89-1.83-4.7-3.47,2.55-.15,4.78-.9,6.43-2.16.02.01.03,0,.05-.04,2.16-1.6,3.38-4.07,3.18-7.19-6.83.2-12.86-.78-17.87-5.92,2.22-.13,4.19-.26,5.39-1.37.53-.48.91-1.18,1.1-2.14-4.54-1.75-9.04-1.28-11.93-5.37,4.07.29,7.74,1.59,11.09-.54,1.13-.73-.08-2.87-.38-4.15,5.3,3.73,9.91,6.25,16.86,5.47-.93,2.2-2.24,3.29-3.61,4.57-.66.61-1.33,1.27-1.99,2.11,4.95,5.09,12.37,3.19,19.9.98l-9.97,11.87ZM891.09,797.44l-15.09,13.75c-2.64-1.06-5.17-1.71-7.75-3.05-.9-.46-1.81-1.01-2.73-1.71.92-.14,1.82-.24,2.68-.32,3.84-.29,6.9-.15,9.64-3.07l-6.2-4.22c5.58.57,11.44-1.35,14.51-7.16l-11.25-1.12c-2.58-.26-4.72-2.29-6.62-4.47-.46-.5-.88-1.02-1.3-1.52.45.16.89.32,1.33.44,6.62,1.86,12.78-1.06,15.99-7.13,1.04-.36,2.14-.57,3.3-.65,1.13-.1,2.33-.05,3.6.1h.07c.27.03.55.06.84.11l-.86,1.54-.02.02-2.71,4.87-.71,1.28c.42.17.86.31,1.28.42,5.2,1.42,10.07-.56,16.14-1l-14.14,12.89ZM912.01,739.63c-5.55,3.34-16.44,6.95-12.03,10.73.98.83,2.08,1.02,4.03,1.9-2.58,1.67-5.28,3.41-8.07,5.01-1.65.98-3.36,1.89-5.08,2.73-4.3,2.11-8.78,3.78-13.46,4.48l-8.33-2.64-3.59-1.14-4.39-1.4,11.18-1.59c1.49-.21.99-3.28-.05-4.12l-3.28-2.66c5.82.73,11.84-2.03,12.93-8.74l-9.55-.19c1.02-1.45,1.77-3.07,1.3-3.74-.76-1.04-2.49-.53-4.55-.42-1.18.08-2.5.03-3.81-.5-1.07-.44-.8-3.25-1.72-4.34-2.29-2.61-6.06-3.67-7.47-7.46-.1-.25-.2-.51-.26-.78l2.68.43,6.59,1.09.11.02c1.89.31,4.18-.46,4.79-1.85.64-1.43,0-3.2-1.28-5.33,7.5,2.23,14.22-2.45,16.82-10.39.73.51,1.44.96,2.17,1.37,1.17.66,2.33,1.2,3.53,1.64,3.33,1.23,6.82,1.57,10.86,1.13-5.54,7.29-14.42,8.48-13.41,14.42.13.78.37,1.43.73,1.98.14.28.34.52.57.75.65.68,1.51,1.12,2.5,1.36,2.72.71,6.44.05,9.67-.6,2.15-.42,4.06-.84,5.33-.84,5.92-.07,10.66-.74,17.14-2.36-3.65,5.11-7.55,9.01-12.6,12.05ZM889.97,730.02c.65.68,1.51,1.12,2.5,1.36.27-.08.57-.16.86-.26-.99-.26-2.1-.63-3.36-1.1ZM889.97,730.02c.65.68,1.51,1.12,2.5,1.36.27-.08.57-.16.86-.26-.99-.26-2.1-.63-3.36-1.1ZM889.97,730.02c.65.68,1.51,1.12,2.5,1.36.27-.08.57-.16.86-.26-.99-.26-2.1-.63-3.36-1.1ZM889.97,730.02c.65.68,1.51,1.12,2.5,1.36.27-.08.57-.16.86-.26-.99-.26-2.1-.63-3.36-1.1ZM889.97,730.02c.65.68,1.51,1.12,2.5,1.36.27-.08.57-.16.86-.26-.99-.26-2.1-.63-3.36-1.1ZM889.97,730.02c.65.68,1.51,1.12,2.5,1.36.27-.08.57-.16.86-.26-.99-.26-2.1-.63-3.36-1.1ZM889.97,730.02c.65.68,1.51,1.12,2.5,1.36.27-.08.57-.16.86-.26-.99-.26-2.1-.63-3.36-1.1Z"/>
  <g id="_1FLSTW" data-name="1FLSTW">
    <path class="cls-1" d="M1013.66,644.9s-.81,59.59-30.33,114.21c-25.73,47.61-57.42,105.86-128.66,168.55-128.66,113.22-255.53,108.91-328.27,110.45-140.86,2.98-278.84-56.37-376.54-157.09C70.52,799.2,20.01,692.84,7.69,579.34c-4.59-42.25-3.74-84.93,2.14-127.03,10.54-75.43,38.86-146.72,80.5-210.2,42.62-65.01,98.5-119.69,164.99-160.02C323,41.02,397.26,17.69,475.92,9.1c46.94-5.12,93.49-3.3,139.47,5.07l-43.29.25c-67.5,1.8-133.85,16.33-195.99,42.96C244.34,113.86,144.38,229.56,101.96,365.73c-29.97,96.18-26.32,199.61,8.89,293.66,44.3,118.35,133.28,213.89,251.74,259.7,6.27,2.42,12.57,4.68,18.91,6.77,39.82,14.73,85.04,26.58,133.62,26.08,200.81-2.07,296.69-47.75,371.88-118.88,79.34-75.05,119.72-164.39,126.66-188.16Z"/>
  </g>
</svg>