<?xml version="1.0" encoding="UTF-8"?>
<svg id="Layer_1" data-name="Layer 1" xmlns="http://www.w3.org/2000/svg" viewBox="0 0 2040 1407.53">
  <defs>
    <style>
      .cls-1 {
        fill: #7c5640;
      }
    </style>
  </defs>
  <path class="cls-1" d="M540.4,281.33l39.97,56.05-56.02-39.81-11.2,159.18c-1.69-7.63-1.34-15.17-1.93-23.58l-9.48-135.75-57.25,41.14,41.13-57.2-60.91-7.27-21.75-2.6-23.79-2.84,29.35-2.71,27.42-2.53,49.72-4.58-17.29-23.87-10.11-13.97-12.25-16.91c-.35-.49-.7-.71-.92-.82-.75-.42-.53-1.55.47-1.53.44.84.92,1.11.98,1.05l18.01,13.05,14.45,10.48,22.73,16.47,2.78-35.93,1.73-22.5,5.12-66.22c.56-7.23.07-13.74,1.75-20.28l6.02,77.62,1.55,19.89,3.66,47.21,56.03-39.89-40,56.13,105.08,10.15-105.04,12.35Z"/>
  <path class="cls-1" d="M394.02,294.65c-53.76,55.93-99.78,119.52-136.16,189.18-46.49,88.98-76.37,185.14-88.19,284.32-1.86,15.44-3.26,30.93-4.2,46.5l-.02.02c0,.14-.02.27-.02.4h-.34l-18.53.02c.34-5.87.76-11.73,1.25-17.58,8.64-107.62,37.91-212.21,86.35-309.04,36.11-72.19,82.21-138.31,136.37-196.68l23.49,2.86Z"/>
  <path class="cls-1" d="M1322.33,87.48c29.6,12.61,58.25,26.81,85.87,42.48-5.16,1.59-10.81,5.13-14.45,13.03-.17.37-.33.74-.47,1.12C1180.26,25.21,923.6,7.24,696.02,94.32c-53.25,20.38-103.98,46.11-151.48,76.6l-1.17-13.8-.67-7.88c58.87-36.93,122.45-66.78,189.46-88.45,192.93-62.38,403.7-52.78,590.17,26.69Z"/>
  <path class="cls-1" d="M1606.6,285.54l-8.12-1.88-5.68,9.04c-.91,1.45-1.65,2.96-2.22,4.51-25.48-26.81-52.75-51.93-81.69-75.19.07-.36.13-.72.19-1.09,1.05-.45,2.13-.95,3.21-1.49.27-.13,1.02-.38,1.63-.59,3.02-1.01,8.08-2.7,12.3-7.73.05-.06.11-.13.16-.2,28.39,23.17,55.19,48.11,80.22,74.62Z"/>
  <g>
    <path class="cls-1" d="M1139.94,1144.62l-48.05.22c2.84-13.5,6.71-25.98,6.74-39.78l.18-66.89h-102.85s.1,64.09.1,64.09c.72,14.67,3.34,28.16,7.11,42.59l-48.41.02c3.82-15.57,6.57-29.72,6.99-45.54v-129.02c-.15-17.27-2.88-32.92-7-49.3l48.57.18c-4.01,15.17-6.74,28.63-7.32,43.33l-.03,61.08h102.84s-.15-65.29-.15-65.29l-6.83-39.16h48.35s-6.75,39.22-6.75,39.22v144.63s6.51,39.62,6.51,39.62Z"/>
    <path class="cls-1" d="M652.8,1144.83c-24.45-32.28-33.57-95.74-73.08-102.18l-27.66-.36.19,62.77c.04,13.74,3.59,26.35,6.7,39.74h-48.16s6.72-39.8,6.72-39.8l-.15-141.79c-.02-14.49-3.54-27.11-6.57-42.2l96.96.38c33.32.13,63.89,20.03,65.84,55.88,1.26,23.16-10.59,43.91-31.87,53.42l-24.46,8.19c13.94,4.69,24.85,13.14,32.88,25.82l21.44,43.68c6.56,13.36,13.47,25.24,24.23,36.15l-43.01.27ZM634.36,998.65c3.28-12.73,2.43-24.9-.71-36.75-4.85-18.49-20.68-29.63-39.73-29.74l-41.96-.23.06,98.45,44.74-.45c18.45-.18,33.29-12.97,37.6-31.28Z"/>
    <path class="cls-1" d="M353.38,1148.39c-34.96-.8-64.48-19.68-82.25-48.7-23.6-38.53-25.13-88.17-3.94-127.93,17.24-32.34,49.73-52.39,84.92-53.63,36.56-1.29,70.71,17.57,89.6,49.83,24.22,41.36,22.99,94.52-3.43,134.49-18.99,28.72-49.59,46.75-84.91,45.94ZM387.52,1123.62c10.48-9.81,17.09-20.99,22.13-34.16,13.54-35.41,13.92-74.71,1.2-110.46-5.2-14.6-12.83-27.03-24.27-36.93-19.7-17.05-47.77-15.07-65.79,3.6-10.88,11.27-17.88,24.64-22.6,40.05-10.6,34.61-9.12,71.84,4.1,105.61,5.77,14.74,14.4,27.92,27.09,36.66,18.52,12.75,41.58,11.15,58.15-4.36Z"/>
    <path class="cls-1" d="M190.4,1144.46l-22.76.34-127.85-186.99-.05,131.59c0,19.52,6.97,36.91,12.23,55.41l-38.95.04c6.07-19.65,12.79-37.79,12.83-58.21l.24-114.94c-1.36-17.54-5.44-33.1-11.88-50.44l42.75-.18,119.57,175.2.32-118.9c-1.56-19.48-6.21-36.84-12.85-56.14l39.27-.02c-6.3,18.48-11.13,34.7-12.86,53.36v169.89Z"/>
    <path class="cls-1" d="M1804.1,1144.41l-22.73.16-127.79-186.99-.35,129.03c1.12,20.39,6.2,38.65,13,58.27l-39.07-.11c4.99-18.13,12.23-34.89,12.29-53.93l.37-121.98c-1.53-16.62-5.76-31.11-11.6-47.64l42.6-.28,119.97,175.82.16-112.27c-.42-21.91-5.57-41.69-13.04-63.24l39.06-.22c-5.21,18.39-12.46,35.82-12.5,55.51l-.36,167.87Z"/>
    <path class="cls-1" d="M1340.98,1058.22l-.06,46.91,6.78,39.83-48.25-.14,6.33-38.4.06-144.57c0-13.99-3.65-26.2-6.47-40.73l88.45-.03c40.87-.02,72.49,25.77,73.99,66.12.77,20.74-7.48,39.05-23.38,52.24-15.03,12.19-33.77,18.14-53.39,18.79h-44.07ZM1418.48,1019.93c10.35-21.29,9.21-45.32-2.24-65.1-8.31-12.95-20.97-20.79-36.36-20.82l-39.06-.07.02,111.69,37.13-.03c17.38-.02,32.09-9.92,40.5-25.67Z"/>
    <path class="cls-1" d="M1956.61,1035.58l-40.91-.44-.02,98.32,48.75.04c9.9.17,19.31-1.66,28.01-6.04,12.18-5.44,22.07-12.99,33.53-21.59l.32,38.98h-151.78s6.33-38.42,6.33-38.42v-146.02c.01-13.49-3.79-25.26-6.42-39.32h150.88s-.54,38.82-.54,38.82l-29-19.56c-8.32-4.78-17.3-7.27-27.08-7.5l-52.98.07v91.43s38.81-.24,38.81-.24c16.22-.1,30.92-6.29,46.52-11.15v34.07c-14.55-4.83-28.38-11.27-44.42-11.44Z"/>
    <path class="cls-1" d="M837.25,1144.6l-48.22.38c2.56-13.45,6.57-26.5,6.59-41.41l.21-170.3-24.24.22c-10.55.09-19.14,7.45-27.12,13.93l-23.44,22.47-.46-48.84h184.68s-.19,49.11-.19,49.11l-25.47-24.16c-6.97-6.61-15.85-12.45-25.71-12.57l-23.67-.29-.02,159.08c-.41,17.96,2.09,33.8,7.06,52.4Z"/>
    <path class="cls-1" d="M1565.83,1144.63l-48.09.23,6.66-39.84.02-141.79c-.65-14.46-3.33-27.17-6.73-42.09h48.36c-3.4,13.98-6.16,25.75-6.99,39.27l.02,144.54c.64,13.55,3.41,25.17,6.74,39.67Z"/>
  </g>
  <g>
    <path class="cls-1" d="M989.08,1335l-16.39-.08c-3.06-.02-6.19-4.19-7.77-6.93l-20.61-35.73c-2.67-3.91-6.45-8.89-11.55-8.91l-27.89-.11-.03,51.96-15.84-.06.07-121.91,50.21.24c12.96.06,24.74,4.6,33.65,13.8,12.53,13.75,10.84,34.15-3.82,45.61-6.17,5.23-13.31,7.44-22.13,10.12,7.35,2.88,13.64,7.04,17.5,14.13l13.86,23.65,10.77,14.22ZM964.81,1246.3c-.9-15.92-11.17-28.87-27.32-28.95l-32.66-.17v62.11s31.43-.07,31.43-.07c18.13-.04,29.56-14.89,28.54-32.92Z"/>
    <path class="cls-1" d="M503.37,1266.27c5.09,39.38-24.34,71.06-63.03,71.06-34.49,0-61.85-24.94-63.43-59.77-1.03-22.63,8.93-43.98,28.67-56.11,20.87-12.82,47.72-12.96,68.83-.47,16.5,9.76,26.48,26.09,28.96,45.29ZM482.66,1302.78c6.71-18.66,6.31-38.83-.22-56.89-6.9-19.1-23.3-30.63-42.68-30.4-18.8.22-34.66,11.72-41.57,30.42-6.62,17.92-6.44,38.23-.25,56.35,6.54,19.16,22.66,30.98,41.81,31.14,19.37.16,35.85-10.97,42.91-30.62Z"/>
    <path class="cls-1" d="M1496.43,1266.73c4.63,39.09-24.34,70.4-62.83,70.6-34.69.18-61.99-24.9-63.79-59.63-1.92-37.11,26.63-66.25,63.84-65.96,32.28.25,58.87,22.08,62.77,54.99ZM1475.32,1303.45c7.15-18.99,6.71-39.83-.22-58.22s-23.19-29.9-42.07-29.74c-18.94.15-34.78,11.49-41.8,30.21-6.88,18.37-6.6,39.18.11,57.68,6.79,18.74,22.77,29.94,41.66,30.02,18.87.07,35.1-10.75,42.32-29.94Z"/>
    <path class="cls-1" d="M1307.16,1269.36c3.16,38.27-25.63,67.55-62.62,67.96-36.87.41-65.23-27.68-64.14-64.85.63-21.59,11.26-41.26,30.63-52.16,20.22-11.38,45.45-11.44,65.72.01,18,10.17,28.68,28.02,30.41,49.05ZM1285.61,1304.14c7.72-20.06,7.19-42.17-1-61.38-7.55-17.69-23.62-27.65-41.93-27.24-17.54.4-32.85,10.81-40.03,28.09-7.89,18.98-7.78,40.67-.67,59.97,6.87,18.66,22.95,29.88,41.88,29.8,18.44-.08,34.54-10.46,41.76-29.24Z"/>
    <path class="cls-1" d="M1667.22,1334.92l-18.25.25-48.44-64.68-17.87,15.94v48.76s-15.76.09-15.76.09v-122.01s15.73-.06,15.73-.06l.13,67.18,74.43-66.94c2.34-.24,4.14-.71,6.21.44l-51.93,46.47,55.72,74.55Z"/>
    <path class="cls-1" d="M804.48,1275.13l-54.42.04v56.5s70.05,0,70.05,0c.58.97.6,2.66.03,3.61l-85.78-.03v-121.97s83.95.01,83.95.01c.21.53.51,1.63.3,3.77l-68.56.16v54.34s53.55-.01,53.55-.01c.71.15,2.05,1.22.87,3.58Z"/>
    <path class="cls-1" d="M664.28,1214.11c.73-1.68,4.49-1.1,5.32-.37l-52.99,120.93c-2.78,1.05-5.21,1.08-7.77-.1l-52.86-121.01,16.42-.17,46.17,105.2,45.71-104.48Z"/>
    <path class="cls-1" d="M1133.74,1331.64c1.32.23,1.71,1.81,1.1,3.59l-81.78.03.07-121.99h15.73s.05,118.38.05,118.38l64.83-.02Z"/>
  </g>
  <path class="cls-1" d="M1130.16,657.69s2.5-46.85-2.51-61.36c-3.81-11.04-27.25-37.91-27.25-37.91l-38.25-27.15-45.67-50.68c-2.82-3.13-5.32-4.38-9.51-4.04-3.3.28-5.7,2.31-7.9,5.8l-35.05,55.71c-4,6.37-20.97.95-24.85,7.81l-17.94,31.79c-2.92,5.17-10.4,5.65-15.06,1.67l-59.64-50.85-25.54-44.27-53.5-20.01-48.08-71.34c-3.66-5.42-11.21-2.96-15.33.45l-99.4,81.95-19.97,48.46c-13.13,13.37-26.6,25.35-41.89,36.2-15.19,11.06-57,32.7-64.79,24.36l-47.23-50.56c-4.58-4.91-10.89-5.55-15.7-.47l-95.12,100.39-24.63,16.99-99,94.4s-14.4,18.64-14.12,24.28c.02.37,7.25-6.46,7.5-6.73,12.97-14.3,28.9-26.77,44.53-38.16l63.35-36.09c-.17,6.65-1.1,11.5-4.02,15.82l-28.68,42.55,38.49-32.93c7.63-6.54,13.55-16.95,17.3-26.41l24.19-61.02,36.88-27.41,6.42-18.81c7.18-8.9,15.61-15.69,24.7-23.19l-20.25,44.67,27.18-21.07c.27,5.7.76,12.29-2.24,16.12l-70.85,78.13c-3.26,6.97-4.21,15.63-5.23,24.29l51.02-55.03,31.83-23.49-9.36,30.39-47.53,58.78-47.63,44.18,39.48-17.05,82.33-50.83,12.39-13.19c2.75-2.92,5.91-4.11,10-3.03,2.78.76,5.59,3.13,7.03,6.74l14.57,36.43-27.6-26.14,4.09,28.95,21.54,35.5,10.44-18.77c2.86-5.15,10.84-6.9,15.44-2.05l75.49,79.77,1.17,1.19.61-1.76c-.44.19-.76-.32-.28-.57l-68.16-152.58,1.78-1.46,41.77,52.57c16.96,24.21,31.26,49.14,51.98,70.17l29.53,29.97.63.68c.55.51.59-.91,1.19-.7-1.08-.64-1.57-1.16-1.82-1.5l-26.28-44.31c-3.11-5.25-5.3-10.87-4.17-18.15l50.52,42.72c23.23,19.65,51.07,32.38,78.92,42.64l.59.45c.76,1.14,2.44.08,1.29-1.1-.27.02-.68-.15-.85-.59l-69.51-56.38-136.93-152.71-29.57-.57,71.33-62.55-2.77,36.26,63.84-116.54,25.01-10.91c6.82-2.99,2.67-23.95,15.8-27.98,4.45-1.36,12.41.85,12.29,6.78l-.89,46.92-77.14,127.25,57.93-42.19,10.91-22.18,42.45-39.71c3.68-3.41,9.43-2.94,12.83.38l107.47,104.82-1.69,1.52-14.61-7.6-87.09-70.17c-2.99-2.42-5.13-4.04-8.88-3.64-2.97.32-6.48,1.97-8.47,5.51l-36.37,64.56-.32,28.8-48.29,58.23,83.2-62.46c3.18-2.41,5.76-3.56,10.04-2.42,7.84,2.08,9.21,18.19,17.56,25.23,2.78,2.35,11.5,1.72,12.77,6.88l25.27,101.96,6.78-67.1,28.7,29.27,20.93,7.24,38.61,41.87.57.63.8.89.55.57.81.89.28.36c.06-.61.95-.87,1.61-.47-.68-.53-.85-.76-.95-.95l-.57-1.06-.51-.53c-.32-.36-.53-.85-.7-1.33.02-.11,0-.27-.09-.4l-75.34-132.65,1.21-.95c2.6.08,4.4,1.89,6.71,4.11l116.36,110.46,52.57,42.45.32.21,1.21.97.38.36,1.16.83c.21.15.42.36.53.57.68,1.46,2.42.55,1.36-.78l-.99-.95-.66-.78-.66-.7-.68-.89-.53-.63-115.5-149.53,47.38,36.2c.21.15.32.34.34.45,1.4,3.13,4.19.25,1.55-1.29l-.64-.76-77.46-120.24,1.72-1.8,120.52,128.57-5.15-31.9,32.56,24.4,52.87,39.61,54.09,3.93-155.68-115.33c-8.51-12.29-1.29-33.63,9.53-41.47,4.32-3.13,9.57-1.5,13.51-1.59,8.09-.19,13-4.53,12.96-12.62-.02-4.22-.55-10.14,1.48-14l22.88-43.51,12.09,15.69c1.42,1.86,2.25,5.83,1.31,8.56l-15.19,44.46-45.69,40.56,68.82-28.85,23.81-18.57c4.43-3.47,10.4-3.14,14.34,1.52l46.13,54.46-1.57,2.05-46.87-41.47c-5.29-4.7-11.82-3.24-15.95,2.2l-31.28,41.2,26.6.68c4.62.11,11.84-10.86,20.33-8.26,2.73.83,6.82,4.05,7.45,8.24l-4.05,22.23c6.9,21.22,20.58-13.99,36.14,2.26,16.94,17.69,22.67,34,23.72,31.62,1.12-2.52,3.63-16.57,3.63-16.57ZM887.71,779.62c-.06.44.3,1.02,1.44,1.71l-1.44-1.71Z"/>
  <path class="cls-1" d="M811.47,294.48l28.21,20.45s4.96-40.74,5.82-44.08l5.74,43.98,28.64-20.39-20.45,28.69,25.72,5.75-25.7,5.75,20.43,28.65-28.64-20.35-5.72,51.37c-.87-3.9-5.83-51.45-5.83-51.45l-29.26,21.03,21.02-29.24-25.49-5.76,25.51-5.75-20.27-27.98c-.18-.25-.36-.36-.47-.42-.39-.21-.27-.79.24-.78.23.43.47.57.5.54Z"/>
  <path class="cls-1" d="M737.17,158.39l20.07,14.55s3.12-20.27,3.73-22.64l4.5,22.57,20.37-14.51-14.55,20.41,18.29,4.09-18.28,4.09,14.53,20.38-20.37-14.48-2.89,23.73c-.62-2.77-5.33-23.78-5.33-23.78l-20.82,14.96,14.95-20.8-18.13-4.1,18.15-4.09-14.42-19.91c-.13-.18-.26-.26-.33-.3-.28-.15-.2-.57.17-.56.16.31.33.4.36.38Z"/>
  <path class="cls-1" d="M1836.33,812.46c-5.96-97.25-28.83-191.01-66.08-277.92l-2.32-.44c-.89-.17-1.81,1.38-1.13,2.36.37.56,1.48,1.5,2.65,2.11,2.2,1.11,1.5,3.33-.43,3.72l-12.54,2.5c4.92,8.45,22.53,7.75,20.72,12.91-1.39,3.99-6.53,5.6-5.75,9.71.31,1.66,1.7,3.18,3.62,5.45-3.19.06-6.97-.43-11.03-1.3-18.88-3.99-43.74-16.06-42.59-18.82.61-1.46,13.43-1.87,17.13-6.01,3.77-4.22,2.66-10.75-1.54-15.24l8.3-4.73,17.15-9.78.32-.18c1.79-1.03,2.31-3.07,1.68-4.73-.48-1.26-1.59-2.5-3.96-2.17l-1.23.17-13.01,1.83c-2.33.32-4.85.85-7.35,1.08-2.93.28-5.82.14-8.33-1.23l-19.13-10.54c2.78-5.2,7.66-7.25,12.58-10.6l-7.1-13.31c1.26.08,2.58.11,3.93.09,6.49-.04,13.93-1.06,20.93-2.61,15.36-3.39,28.65-9.35,25.43-13.22-.5-.6-1.67-1.15-3.37-.91-10.67,1.54-20.47.11-30.61-1.75-2.32-.43-4.66-.88-7.03-1.32-5.73-1.07-12.09-1.78-13.89-8.16,5.21-.51,10.02-.91,14.12-2.59,2.77-1.15,5.21-2.89,7.21-5.64-5.2-3.36-10.23-4.66-12.43-9.49,13.09-2.7,26.78,1.89,30.72-10.11-7.88-5.37-15.22-5.37-7.71-8.12l12.06-4.42c6.3-2.28,13.05-6.98,11.67-15.13-18.26,7.25-35,10.43-53.16,8.23-4.35-.52-7.62-1.11-10.49-4.74,6.66-1.83,7.03-7.84,9.47-11.02,1.59-2.07,7.62-2.5,6.59-6.6-1.72-6.96-17.83-3.63-18.79-18.57,7.36-4,15.55-5.53,22.58-11.51l-18.7-11.13,28.3.46c3.51-.37,3.68-4.18.13-4.53-4.9-.59-8.92-2.07-11.32-5.68,5.73-3.72,10.76-7.03,12.28-13.17.68-2.77-.96-5.49-2.81-5.79-3.74-.66-8.92,10.69-25.73,4.35-4.2-1.59-7.43-3.03-7.05-7.75.6-7.82,17.54-7.14,12.93-19.18-7.58,5.68-12.89,3.94-19.81.13-2.33-1.28-5.19-1.92-4.36-5.44.89-3.88,17.59-3.29,12.91-14.7-5.44-.39-13.67,3.29-18.13-3.11.21-2.37,1.24-5.55.72-8.53-3.64-1.77-6.91-1.48-11.33-1.88,5.64-19.31,3.92-34.22,2.96-50.85l-.93-16.27c-.13-2.43-2.79-3.09-4.16-2.3-.67.39-1.7,1.46-1.76,2.94-.42,7.53-2.96,14.17-4.77,21.61l-3.81,15.7c-1.22,1.89-8.01,2.83-5.99,7.23.94,2,1.83,5.25.13,6.99-.93.95-3.24,2.15-5.4,1.04-3-1.57-9.42,3.22-6.85,5.27l13.99,11.13c-3.96-.27-6.59-1.7-9.25.52-9.79,8.16-24.36-1.57-27.02,7.99-.71,2.57.2,7.55,4.12,8.36l14.67,3c2.31.46,3.38,2.64,3.22,4.29-.3,3.48-6.59,3.48-8.01,6.73-2.74,6.27,9.23,4.96,14.79,10.97-8.61,3.43-17.06,4.89-25.62,4.74-5.6-.07-11.25-.83-17.03-2.17-2.79,4.44-1.07,9.21,1.93,12.08,2.7,2.57,6.62,4.07,11.67,3.88,1.83,1.19.53,3.11-1.46,2.7-2.15.25-3.6,1.65-4.05,3.12-.19.61-.21,1.24-.02,1.8.68,2.08,2.38,2.96,4.5,3.37,4.19.83,10.05-.15,13.12,2.72,2.06,1.92-.71,2.92-6.44,5.14-2.15.82-4.72,1.83-7.61,3.11-14.3,6.36-30-.65-30.69,3.97-.39,2.61,16.76,17.06,25.62,15.63l23.64-3.81c-2.24,7.44-8.01,14.1-15.3,15.06l-34.18,4.51c4.68,8.73,13.65,8.9,23.03,8.71-3.39,2.39-7.86,1.83-10.69,5.98,11.74,7.62,29.89.79,26.72,5.16-7.38.44-13.2,4.51-19.71,6.62-14.45,4.68-28.36.57-44.06-1.39,5.29,8.34,13.72,16.52,22.32,16.22l33.33-1.22c2.15-.7,2.39,2.42.32,2.76-5.77,6.47-17.5,3.77-26.51,9.23,3.11,4.66,7.27,5.34,11.38,8.54-7.1,5.35-13.89,2.72-21.81,6.57,14.98,8.73,31.22,6.27,47.31-.37-1.86,9.63-10.3,15.16-18.18,20.77-19.55,13.94-33.92,3.83-31.74,11.56,6.81,3.4,14.45,4.12,21.68,2.59l25.75-5.37c-4.87,16.85-20.09,19.09-32.41,29.78l18.07,8.82c-19.16,7.66-29.63.78-21.49,13.67-10.63,3.33-20.57,1.83-27.89-6.14,8.58-1.55,12.74-3.83,14.04-10.95,6.58-.46,12.78-3.53,12.56-11.5l-15.91-.04c-5.83-1.63-10.25-5.09-15.78-8.97,4.68-2.9,8.07-3.53,11.12-8.19-2.2-3.35-5.46-5.11-6.33-9.92,6.53-.29,13.3-1.35,15.89-7.56l-15.55-2.04c-1.69-.24-3-1.42-3.37-2.4-1.37-3.5,14.83-6.53,15.83-19.05-5.49-3.76-11.3,8.3-23.52,2.61-3.33-1.54-9.03-6.11-6.24-12.06,1.41-3,9.79-3.81,9.34-10.38l-9.67-1.33c-2.83-.37-4.77-3.2-4.75-5.4.03-3.35,7.19-5.7,6.03-9.73-.32-1.22-4.11-1.31-5.11-2.39-10.93-12.02-.83-31.66-11.95-33.53l-3.31,20.46c-3.01-2.48-5.51-3.76-8.32-3.59-2.05.15-4.05,3.96-6.84,4.27l-14.41,1.59c-6.01,3.04-10.69,4.44-16.35,1.22-4.9-2.79-4.59-6.91-6.4-12.98-1.17-3.96-10.19-3.53-14.02-3.09-1.33-7.34-.8-13.35-.22-19.59,8.65-1.57,14.5,7.01,24.26,4.76,2.98-.67,4.52-5.81,6.68-7.7,14.35,4.26,16.68,15.11,30.65,5.11,10.78-7.75,9.34-20.68,6.23-23.88-5.18-5.31-20.66,7.86-26.6-8.36-1.27-3.48-4.49-6.31-6.77-7.36-2.68-1.22-7.1.5-9.93,1.03-8.14-5.36-18.38-3.18-24.28,5.61-3.04-.02-3.7-4.48-3.37-7.2l3.9-32.12c.28-2.24,2.41-3.54,3.65-3.83,5.99-1.41,4.68,8.6,9.15,10.5,2.41,1.02,7.07,2.17,9.12.89,5.77-3.64,10.36-2.81,16.59-3.75,4.59-.69,8.1-4.24,13.89-1.41,4.22,2.05,12.17-2.11,11.56-7.38l-1.53-13.24c-.93-8.1-14.56-4.42-19.94-5.57-2.09-4.07-2.65-13.24-9.9-12.02l-10.28,5.16c-6.33-.35-12.36,1.61-17.61,3.72-5.03-5.98-3.94-16.78,1.67-22.46l12.85,6.09c8.71-2.44,14.54-11.3,15.85-19.85-6.12-2.7-12.85.69-17.92-2.72-2.07-2.66,2.87-6.88,5.07-7.43,3.98-.99,6.83.77,11.4.91,3.15.1,7.11-.56,12.83-3.41,3.43-1.7,6.82-1.8,9.06-4.47.34-.41.66-.88.94-1.43,1.96-3.77,2.02-7.08-.9-11.76,6.27-5.03,13.37-4.66,16.92-9.64.85-1.2,1.02-6.25-1.44-5.6l-12.67,3.36c-6.48-.68-12.8-1.51-18.57,1.41-4.54,2.29-8.61,2.41-12.91,2.06-3.06-.25-6.23-.73-9.77-.84-4.4-.13-12.78,6.55-17.05.17-2.28-3.46-1.72-10.47-1.31-15,4.23,2.42,5.82,7.28,8.13,9.41,3.94,3.67,6.63.47,9-1.55.68-.58,1.34-1.06,1.99-1.26,7.36-2.22,12.41-4.35,16.85-11.3,3.48-5.48,6.07-12.56-.83-17.11l-10.56,7.55-12.78,2.12c-2.28.37-4.87.34-6.09-.72-1.42-1.22-1.39-4.47-.22-5.88.96-1.15,2.7-2.29,5.68-2.74l.87-14.57c3.73-.8,9.39-.24,10.3-3.29l3.05-9.99c4.38-2.81,7.53-13.17,2.57-15l-21.75,2.09c2.7-5.14,4.66-8.6,4.55-13.93-.09-3.9-5.38-6.14-7.51-10.28-3.01-5.88-4.64-14.67-4.55-21.51l.33-21.2c.04-3.01-3.1-7.06-6.04-6.27l-8.99,35.03-2.22,14.54c-.69,4.53-3.68,8.62-.89,14.19.76,1.51-.04,4.73-1.22,5.47-3.18,1.98-13.56-2.07-14,8.95,3.44,1.35,6.34,1.69,8.91,4.33-4.1,3.66-6.4,7.86-4.92,12.13,2.63,7.55,15.32,4.94,17.24,7.68,2.61,3.7,1.52,11.84-1.76,13.43-4.47,2.18-8.36-8.42-14.87-3.26-.09.07-.17.13-.26.19-6.94,5.14-16.12-1.9-20.56,7.75-.35.76-.56,1.64-.62,2.54-.17,2.52.85,5.3,3.41,6.63,4.17,2.14,7.92,2.41,11.3,2.15,7.68-.57,13.39-3.8,17.5,6.32.6,1.46.68,3.2.28,4.86-.48,2.04-1.69,3.97-3.56,5.13-16.77-10.6-21.62,2.35-28.79-4.09-4.33-3.88-13.65-3.25-16.04,3.11-2.13,5.64,3,13.65,8.62,14.72,8.51-2.37,15.28-1.24,20.88,5.14,7.44-.53,14.69.65,19.79,6.11,1.2,3.62-2.24,10.48-5.51,10.56-6.77-2.87-11.15-.98-18.2.81-4.03,1.02-13.04-1.83-13.72,6.51-.43,5.31,7.95,10.03,13.24,9.55,7.77-.71,17.57,5.45,18.59,10.48,2.05,10.21-9.23,2.74-19.94,5.72-11.08-9.53-29.61-12.89-31.46-3.81-1.65,8.14-9.99,9.12-7.51,15.39,1.46,3.66,8.51,9.39,13.5,9.13,2.81-.13,5.44-2.51,7.99-4.16,4.2-2.72,7.42,3.61,10.38,3.29l12.46-1.31c4.74,3.79,9.34,4.48,14.82.41,2.46,2.83,7.77,8.71,6.66,12.78-4.59,16.55,5.66,17.4,1.75,22.1-.9,1.09-2.46,1.02-3.12.15-.43-.56-.91-1.7-1.11-3.9-3.09-.87-6.77-.34-9.42-3.06.08-3.31-.07-6.69-1.66-8.97-.76-1.14-14.8-7.73-21.05-6.06-3.7,1-6.95,3.77-9.36,8.15l-11,1.32c-3.87,8.73-16.93,2.44-13.97,12.61.61,2.07,1.46,5.07,5.07,5.72,9.95,1.77,21.25,3.1,31.39.79,3.01-.68,7.56-7.32,12.09-3.2,4.33,3.89.43,16.46-6.36,16.72-3.64-.68-10.82-1.57-13.8-3.35-6.34-3.86-10.52-2.9-17.33-2.77-7.73.15-15.9-.65-22.45,4.55-3.74-1.94-9.1-3.48-11.67-.33-1.54,1.92-5.18,5.32-4.44,8.82,5.27,6.01,14.04,9.51,22.14,6.62,3.94,4.14,8.82,4.35,13.43,2.44,6.16-3.53,9.91-1.42,15.37,1.7,4.27,2.46,11.96-.31,16.72,1.08,6.97,2.03,12.3,1.2,18.97-4.35,4.31,14.46,1.5,29.48-1.72,25.45-3.36-4.22-4.68-7.23-9.56-6.84-6.53.55-2.81,9.39-23.49,13.22-13.48,2.5-8.91-14.94-17.42-16.44-3.83-.67-6.03,1.46-8.92,3.59l-12.07,9.02c-6.16,4.57-13.34,5.48-19.52,1.35-5.86-3.9-15.53-1.16-16.64,5.85-.32,2.16,11.26,12.28,19.1,13.81-4.49,3.98-8.73,5.22-13.39,7.68,1.13,14.33,11.58,9.49,24.69,12,3.15.61,6.16-2.22,7.03-4.2.98-2.23.15-5.64-.18-8.39,3.7-2.89,9.6-6.01,14.44-7.4,5-1.44,5.29,6.25,6.81,8.51,6.77,1.53,15.48-3.28,21.71-4.33,8.99-1.54,13.32-9.73,28.56-10.49,3.68,7.57,4.4,14.82,2.22,22.07l-8.77-11.17c-2.25-2.85-7.56-1.78-10.3.27-2.09,1.56-2.96,4.74-1.96,7.75,2.57,7.73,11.41,4.57,10.38,10.64-1.02,6.14-6.44-1.94-11.97-.85-5.14,1.03-6.01,7.73-9.95,7.43-5.38-.39-4.48-9.65-15.13-11.67-8.32-1.55-11.1,12.58-19.75,10.6-7.01-1.61-9.6,2.37-13.34,6.71-4.07,4.7-6.88,9.23-3.16,14.17,3.09,4.09,8.82,5.64,13.61,2.89,12.91-7.35,15,10.74,27.91-1.65,1.7,4.24,2.57,7.25,4.31,8.32,3.59,2.19,19.96,1.93,25.43-6.14,3.63,1.74,6.68,1.69,10.62,1.63l-2.2,27.34c-4.7.35-8.1-2.57-11.93-4.83-5.2-3.07-10.51-.63-15.98.33l-10.69-2.77c-5.79,2.88-8.6,8.06-11.25,13.46-.79,1.61-4.29.71-4.75-.37-2.98-7.04-6.2-7.47-14.76-11.59-2.57,2.57-3.7,4.82-7.27,5.88-.65-5.55-1.63-9.08-4.77-11.51-2.24-1.75-7.7-3.4-10.32.43-3.46,5.14,1.18,14.06-1.09,19.77-4.44,11.17-28.62-.76-29.02,6.55-.41,8.04,14.13,7.29,24.63,14.37,5.24,3.53,10.1,2.81,15.02-1.59,1.87,3.29,3.7,5.14,5.75,6.01,3.44,1.44,8.31-4.09,23.07-7.38,2.57-.57,5.29-3.48,8.1-2.35,2.68,1.09,4.49,2.85,6.03,6.38,1.94,4.44,9.63,8.79,13.5,4.66,5.42-5.77,10.93-10.89,19.14-11.65,7.88,11.25,4.76,35.51,1.19,36.49-1.76.5-5.61-1.05-6.46-2.96-3.53-8.06-9.08-7.6-16.33-7.12-5.86.39-11.32-1.68-16.81,3.59-.76.74-3.44.72-3.92-.18-1.52-2.87,5.19-7.66,8.34-15.34-7.81-11.91-28.73-3.55-30.74,2.96-1.43,4.59,1.05,7.7,2.68,12.01.76,1.99-3.53,3.97-5.31,3.44-1.57-.47-4.01-2.56-5.66-4.57-5.36.74-12.76,1.7-18.09,3.94-1.53,2.55-2.92,6.86-5.01,7.84-5.81,2.79-12.85-5.38-16.68-.65-5.66,7.01,8.62,19.57,20.42,22.14l10.98-2.22c1.63,6.68,5.77,7.55,11.45,7.81,18.98.81,16.78-15.11,26.04-12.21,7.9,2.46,15.34-.48,22.31-.07,6.44.37,10.3-.32,15.33-4.59,1.48,3.92,3.68,10.69,10.62,9.21l-1.68,13.76c-.63,5.03-16.17,8.55-22.16,3.68-7.38-6.01-23.12-3.35-26.67,7.1-4.68,1.19-13.43-.92-18.28,2.78-2.42,1.85-2.36,5.07-1.18,7.49.72,1.44,2.29,3.4,4.68,4.27,8.86,3.26,5.9,11.12,9.19,12.93,1.2.67,4.53,1.59,6.18,1.15,7.75-2.09,14.41,1.22,21.21.42l13.36-1.59c3.16-.37,9.26-4.09,12.8-2.14,2.38,2.44-1.39,6.64-2.89,8.34-3.11,3.51,3.05,8.45,3.07,11.15-1.42,31-1.31,61.76,1.3,92.74l.05,22.88c-4.4-1.13-7.82-2.5-12.26-.17,5.03,12.93,7.27,24.95,2.42,37.08-2.33.54-7.06,1.19-8.62-.35-3.57-3.55-3.9-9.17-5.32-13.85-4.09-2.2-8.07-2.68-10.92-6.49,8.94.02,16.95,1.88,23.22-4.46l-22.68-8.58c6.01-1.89,10.06-1.89,14.59-5.05,1.78-1.24,1.59-5.64-.03-5.4-11.16,1.77-21.66,2.09-31.5-3.55,2.14-6.7,7.27-8.79,14.13-8.12.11-6.4-4.68-7.75-9.27-9.62,7.73-4.51,15.98-5.49,18.26-14.5-10.1,3.09-18.85,6.08-26.25,1.61,8.49-4.24,17.15-8.66,16.32-18.29-8.35,4.71-14.8,8.17-23.09,6.58,1.28-3.07,2.52-5.81,1.89-7.55-.54-1.57-3.66-2.7-7.18-3.44,2-4.84,5.44-8.71,9.27-12.81,6.71,1.2,13.08-1.93,12.63-8.7-5.64-.05-10.56.95-15.24-1.83,4-3.86,6.75-7.49,2.96-11.61-4.38,5.49-11.69,5.95-16.22,2.44,1.57-7.33,14.98-4.35,14.3-15.54-5.07.43-9.32,1.57-13.97.63-2.4-.5-3.68-3.14-3.23-5.03.7-2.96,5.29-3.88,6.01-6.49.22-.8-.48-2.2-1.52-2.61-11.63-4.55,1.44-20.29-7.21-31.15l-8.25,20.74c-2.04,5.14-.09,12.43-4.48,16.98-1.18,1.22-3.83,2.62-3.44,4.12l1.37,5.49c-1.7.54-6.51,2.43-5.9,4.63,5.86,4.12,7.34,7.95,5.27,15.2l-8.65,1.44c.42,4.24,2.83,5.63,5.36,7.85-3.96,1.53-6.55.9-9.62.68l.82,6.29c-6.09-1.96-11.97-1.35-17-5.59,7.23-1.85,13.74.17,18.59-5.93-6.31-1.45-11.71-1.58-14.74-5.79,7.62-3.33,16.05-6.44,16.64-15.85-11.87,4.86-24.8,7.12-33.62-1.67l16.61-1.74c1.12-1.03-1.61-4.79-3.28-5.53,6.03-2.31,10.86-2.62,12.99-9.06-7.9-1.26-15.43-1.39-21.24-6.79,7.4-2.33,13.45-7.88,9.38-14.48-4.86,4.75-15.48,6.51-17.35.26-1.48-4.85,2.65-13.67,6.01-16.39,2.83-2.33,4.66-3.72,4.94-6.71.39-4.09-3.22-3.72-5.36-5.68-10.34-9.47-5.03-22.86-9.12-23.99-.87-.26-2.46,1.07-2.89,2.28l-6.73,19.29c-2.03-5.03-3.88-7.7-7.12-8.75-4.2-1.35-8.08,6.56-12.54,5.71-1.72-.33-2.85-7.51-7.03-9.17-2.44-.96-4.86.37-7.67,1.87-2.41.11-2.89-8.47.18-8.73,6.16-.54,9.58-3.39,13.93-5.79,4.75-2.63,10.6,4.64,14.22,4.79,6.31.26,6.36-8.73,7.25-13.47,3.29.74,10.95,5.07,14.17,1.19,5.36-6.42-1.15-19.33-9.45-20.81l-7.03,6.99-11.32-1.66c-1.74-4.05-5.51-5.83-9.12-4.46l-12.69,4.79,1.04-15.35,6.71-1.2c7.09-3.7,14.45-4.61,21.61-.43,3.25-4.25,7.82-4.86,11.52-7.47,2.57-1.83-.17-7.84-2.81-8.75-6.29-2.16-11.21-1.24-18.18-1.52,1.81-2.75,2.4-5.58,1.33-7.17-2.57-3.76-10.86,1.53-17.85-1.8,7.49-2.9,9.03-10.15,17-8.19,5.58,1.37,13.74-2.72,12.17-9.08l-6.35-9.77c-7.56-1.35-16.55-3.29-24.69-2.59-1.18.08-1.29-2.44.69-3.36,2.55-1.17,13.96,3.25,22.1.09,3.53-1.35,5.44-3.79,9.84-1.7,3.05,1.46,6.23-.93,6.71-3.63.54-2.96-.85-5.92-4.79-6.49-7.73-1.11,5.51-7.16,3.46-15.39-.85-3.44-4.57-5.36-7.58-7.17-4.26-2.56-7.14,3.97-9.95,4.25-6.46.67-10.71-3.27-17.22.3-1.76.98-3.55-3.13-3.96-4.63-.3-1.2,1.59-4.88,2.81-4.25,5.27,2.7,9.3,4.6,14.15,2.07,5.79-3.03,9.69-18,6.03-20.09-5.07-2.92-22.51,6-17.46-2.94,1.57-2.79,8.77,2.41,12.61-4.44,4.09-7.41,11.97-10.04,9.16-14.05-2.28-3.26-11.65,2.31-18.87-2.72,2.98-3.63,5.79-8.16,3.54-12.3-1.78-3.33-7.18-1.98-10.55-.02l4.52-16.92c-.63-14.52,1.62-21.83-2.24-22.4-6.9-1-12.6,8.23-15.39,17.38l-4.92,16.28c-5.14-.76-11.39,2.81-10.41,7.69.94,4.74,8.47,4.46,11.26,5.83,1.5,3.29-2.37,6.18-4.27,7.25-2.15,1.22-5.62.26-8.16-.76-3.46-1.4-6.66,1.06-7.21,4.05-.39,2.15,1.13,4.72,4.09,5.72l14.39,4.9c3.6,1.22,4.99,3.57,5.69,5.62.98,2.91-.46,6.62-3.75,6.33-2.41-.21-4.18-4.9-4.68-7.27-7.92-3.96-16.04-5.33-24.64-2.18-8.97-3.87-18.57-1.93-23.93,5.93-1.09,2-.65,4.74-.33,6.14.33,1.32,3.16,3.76,4.45,3.2,7.27-3.18,12.32,2.43,17.96,2.26,9.23-.31,20.74-3.24,24.77,7.42l-25.36.46-1.48,13.13,9.56,1.81c11.21,7.25,19.76-2.94,22.72,3.46,1.57,3.37-.63,5.94-3.63,7.49-10.12,5.24-16.57,1.67-16.68,7.14-.04,2.17,2.09,4.46,4.86,4.5l15.59.26c-2.7,9.3-10.41,7.76-17.03,8.19l-14.83.96c-1.69.11-4.41,2.68-6.92,2.92-4.57.43-13.58,1.8-15.33,7.14-1.37,4.22,7.39,6.81,10.61,5.85,5.96-1.78,7.7,1.92,10.25,5.21,3.99,5.11,12.32,2.48,15.11-2.57,1.94-3.53,7.47-4.27,9.93-1.72,2.78,2.85,4.37,3.85,8.25,5.51-6.47,1.93-7.71,4.7-8.84,10.71l-6.77-3.62c-5.9-.91-11.28,2.53-16.15,6.12l-17.94-10.95-11.24,9.36c-2.61-4.46-8.34-6.73-11.88-3.03-3.25,3.4-3.88,15.03.82,16.94,4.73.35,9.28-1.67,14.59.66l13.34-1.83c4.23,2.57,9.54,10.34,15.51,8.57,6-4.02,11.47-10.01,19.68-4.65,2.87-2.14,4.52-4.18,8.53-5.45l-.81,13.83c-2.83-2.4-6.03-2.75-9.29-1.29-2.35,1.07-2.57,4.07-4.14,6.73l-7.12,12.21-6.4-10.25c-2.61-4.18-8.38.24-11.93,1.76l-11.38,4.9c-2.59,1.11-3.12,3.59-2.42,5.36,1.57,4.09,10.82,1.52,11.82,4.09l2.31,5.92c5.07,2.9,11.15,6.08,15.87,5.2l16.52-3.02c.46,6.51-1.91,11.36-4.98,17.35-3.27-5.64-6.38-7.1-11.54-6.29-4.44.69-7.84,3.55-7.18,9.9-1.16,1.44-3.23,1.16-3.53-1.46l-12.67-9.23c-6.14-1.76-8.43-.87-13.22-6.07-4.74-5.16-20.48-4.57-23.53,2.09-2.09,4.62.19,9.82-3.4,13.8l7.86,10.23c-8.82,6.19-11.12-3.26-18.72,4.36-1.52,1.53-1.57,6.36.63,7.01,12.22,3.66,16.39,2.89,28.8,2.39,7.64-.32,16.03,1.07,23.78-1.69,3.18,4.15,6.35,7.66,10.88,7.99l10.56-4.84c4.9-.52,10.1,1.61,14.3-3.74,1.68-.55,2.73.72,2.29,2.72-1.59,7.31,7.64,18.44.68,18.77-1.09.06-2.7-1.11-4.18-2.7-4.03-4.31-15.18-1.2-14.66,5.26.26,3.42,6.75,15.33,2.4,18.84-4.44,3.59-5.1-10.11-9.6-13.37-10.02-7.25-18.77,17.79-24.86,3.79-2.81-6.43-11.26-5.12-20.56-.9,1.96,12.44-11.73,14.29-9.36,19.86.61,1.41,2.83,4.05,5.21,4.14l23.16.84c3.24.14,7.9-2.17,10.43,1.4,3.26,4.57,8.29,6.46,13.47,2.98,7.84-5.29,9.97,6.14,16.98,6.05,2.7-.04,5.71-1.48,7.86-4.02,1.38-1.72,3.12-1.01,3.05,1.11l-1.89,80.13-.39,16.09c-.31,12.52,2.46,23.54.26,36.75l-21.8-10.06c9.74-3.65,19.38-5,19.58-11.01.13-4.6-11.74,3.96-23.69-4.97-2.79-.58-1.87-3.81,1.18-2.89,3.17.76,6.51-1.5,5.59-4.29-.89-2.7-5.09-3.96-6.38-5.42-1.5-8.84-9.12-10.32-8.6-12.04.96-3.29,15.39,2.98,20.4-7.23-5.72-2.98-11.34-3.26-17.41-4.61-2.01.37-2.55-1.94-.44-2.33,4.66-1.53,8.66-3.68,10.75-5.82,1.44-1.43,1.99-2.87,1.22-4.07-.95-1.52-5.9,0-11.71.26-1.48.09-3.03.07-4.59-.08l-.13-.03c-4.4-.47-8.82-2.22-12.09-6.79.9-8.95.4-14.87-3.83-22.36l-2.13-24.51c-6.23,5.7-3.68,15.02-7.88,21.38-3.18,4.83-4.05,8.88-5.64,14.41l-2.07,7.23-1.07,3.7c-1.5,5.22-9.6,6.01-14.47,6.53.45,4.86,3.31,6.03,6.55,9.41-14.11,6.31-25.41-1.66-25.36,4.66,8.29,7.72,18.92,9.81,31.28,9.47-4.77,5.85-11.04,6.66-17.76,8.59-.55.16-1.07.31-1.61.48,2.24,4.27,5.9,4.55,7.77,6.6-17.64,11.89-39.34,1.5-41.26,4.99-2.92,5.29,21.16,9.62,19.97,12.54l-2.12,5.09,15.16-.04c-22.58,14.95-42.72,3.15-44.52,6.59-1.07,2.07,21.46,14.11,34.13,14.92-14.45,8.51-28.1.28-34.53,1.35-8.25,1.39,8.54,14.17,35.23,13.99,2.26-2.3,6.07,1.22,2.35,2.16-9.88,3.66-18.22,2.96-19.18,3.74-.94.77-.54,2.64.35,2.97l2.85,1.02,15.39,2.63c-4.13,1.42-8.31.96-8.34,5.97h72.57s656.78.01,656.78.01c.61-.39.83-1.18.45-2.63ZM1236.7,738.14c-.85,2.33-1.89,4.48-2.61,6.6l-.28-9.06-.24-7.38c1.24-.7,4.59.57,4.57,2.7-.02,2.59-.63,4.94-1.44,7.14ZM1238.75,706.27c-1.24,1.2,3.59,4.68,4.35,7.12,1.26,4.18-4.2,7.49-8.97,8.23l-.98-27.61c7.58.17,13.06-1.02,20.71-3.7-2.42,8.36-8.8,10.99-15.11,15.96ZM1235.33,652.52c-1.33,5.11,6.29,1,16.31,1.06l-7.71,7.95c2.59,2.68,5.05,2.26,8.75,2.61-5.38,7.12-11.36,10.45-20.09,12.8l-.46-39.71c7.77,2.59,14.59,2.68,22.62,1.42-4.94,10.45-18.81,11.54-19.42,13.87ZM1252.59,588.88c-.21,7.68,5.93,9.27,12.83,9.88-2.49,6.86-12.41,7.41-16.48,11.17-.59.55-1.51,3.22,1.24,4.53,2.04.96,6.72-.43,10.08,2.5-6.08,10.13-16.92,14.85-28.5,14.57-1.57-11.28,12.71-11.89,13.24-23.14.37-7.6-13.11-9.76-7.08-33.14,4.79,3.31,7.16,2.35,12.37,1.61,3.22-.43,9.57,3.29,12.08-1.04l3.31-5.73c.78-1.37,6.75-.32,6.9,1.57.78,10.75-8.82,18.48-19.99,17.22ZM1322.37,695.47c-2.13-2.98-4.42-5.42-6.55-4.68l-7.97,2.81c2.04-4.1,7.49-9.21,5.29-13.78-3.01-6.32-11.39-5.75-16.2-9.58l17.5-1.42c1.62-.13,4.31,1.55,5.25,2.38,1.29,1.13.33,4.74-1.59,6.96,4.4,3.92,9.43,3.79,15.35,6.51-4.09,3.53-7.55,5.81-11.08,10.8ZM1521.48,401.93l.81.83-.81.81-.82-.81.82-.83ZM1465.9,421.81c4.92,2.83,8.89,3.57,13.37,1.72,4.4-1.83,5.29-6.25,6.77-10.86,13.35-10.71,21.9,7.57,33.94-8.62.68,4.33-1.24,8.29-2.28,13.12l-12.35,3.73c-.02,6.25,4.44,7.25,9.01,9.12,2.83,1.15.9,6.51-.52,8.29-1.59,2.01-5.55,2.94-8.47,1.64l-12.21-5.47c1.89-4.59-2.76-11.49-6.86-9.36-2.68,1.37-4.11,10.02-9.64,7.6-5.16-2.27-12.13-2.61-18.33-3.38-2.49-2.59,3.87-9.64,7.57-7.53ZM1456.48,550.15c-1.48-1.07,2.43-3.42,5.16-3.07,6.27-.37,10.47-3.05,13.39-9.25,5.55,4.87,1.17,10.34-2.27,12.78-4.68,3.31-8.51,2.5-16.28-.46ZM1464.34,588.05c-2.44,2.42-12.68,1.98-12.11-2.83l10.97-.74c1.98-.13,1.81,2.9,1.14,3.57ZM1459.5,524.24c-.89,3.77-3.79,7.6-6.27,12.76-.8-5.29-2.07-11.39-.06-16.81.67-1.85,7.07.94,6.33,4.05ZM1466.8,669.13c-12.59,4-3.94,15.85-7.58,28.49-3.83-12.64-2.74-24.44-2.9-37.07l22.21.04c-2.66,5.21-7.25,7.12-11.73,8.54ZM1469.02,632.16l12.43-1.09c-3.44,9.82-12.26,15-23.06,17.57,2.35-7.1-2.87-10.6-3.61-16.04l-3.94-28.65c6.44-3.16,8.18,2.28,11.65,4.46,6.55,4.09,13.97-1.09,20.87-2.96-2.89,11.32-15.28,13.67-24.23,17.44-1.8,3.96,4.6,9.73,9.89,9.27ZM1483.78,504.98c-2.53-.37-5.88,2.02-6.4,5.16-.55,3.26,1.54,5.85,3.07,10.31-14.85-2.26-2.53-20.26-19.18-17.26,2.13-6.77,12.49-7.1,12.25-12.34-.24-5.05-8.18-2.12-12.36-5.32,2.26-3.48,6.48-2.65,7.97-3.98,5.13-4.59,1.43-10.86,1.63-16.09,9.77-6.46,9.29,16.4,24.08,6.92,5.94,1.16,11.19,4.14,17.7,1.09-8.17,9.21-18.14,11.93-31.51,14.46,6.71,10.04,18.25,7.21,28.33,5.25-3.83,5.11-10.19,6.31-15.85,9.42,1.37,5.55,7.12,4.44,10.36,6.19,2.48,1.93-1.22,5.7-3.63,5.9-8.78.76-7.97-8.45-16.46-9.71ZM1506.37,534.71c-.65.57.55,3.47,3.07,5.08-4.5,4.24-11.29,4.94-17.83,5.79-2-9.02,8.19-14.44,20.38-17.09-.48,3.61-3.63,4.59-5.62,6.22ZM1513.32,529.18l-.81-.82.81-.81.83.81-.83.82ZM1521.81,461.02l-11.76-4.61,8.49-7.65c3.12-2.8,6.43-4.42,9.89-1.46-3.01,2.62-4.51,5.38-4.16,7.52.37,2.28,3.27,3.65,7.84,4.96-2.18,2.74-6.56,2.7-10.3,1.24ZM1563.44,636.54c-2.36-.2-2.03-3.92-1.4-5.01,1.05-1.74,2.79-3.11,5.95-2.4l7.86.16c-3.21,4.05-7.89,7.64-12.41,7.25ZM1580.13,599.81c-4.18,4.9-9.75,5.94-12.21,15.24-4.72-5.07-.98-10.17-2.52-16.05l-15.79-4.09,42.45-9.08-11.93,13.98ZM1593.28,586.27l-.8-.81.8-.8.83.8-.83.81ZM1586.08,556.88c-.18,2.15,3.92,3.81,6.88,3.59-2.64,3.03-5.25,5.92-9.19,7.27l-21.55,7.42c-2.29.77-4.71.31-5.01-1.26-.74-3.9,11.62-3.55,13.06-12.73l-31.2.32c-.65,0-2.22-1.72-1.98-2.24.87-1.92,16.51,2.66,38.91-7.34,5.81-2.61,11.56-5.18,18.18-5.27-1.2,5.16-5.79,6.67-8.1,10.24ZM1748.68,606.21c-3.81-4.96-8.77-5.25-13.1-8.27l28.52-.61c2.57-.05,5.57,5.72,3.46,7.29-14.7,10.8-32.57,17.42-45.07,3.46,8.8-1.44,17.42,2.94,26.19-1.87ZM1712.74,746.85c5.14-1.61,8.97-2.98,14.96-.83-4.62,4.68-10.39,2.68-14.96.83ZM1744.46,720.66c-4.96-.94-8.3-1.24-13,.8-7.16-6.88-16.26-6.75-26.34-11.51l39.47-5.71c.63-.11,2.94-1.54,3.66-1.09,3.02,1.92-7.47,7.56-3.79,17.51ZM1709.67,684.89c7.73-4.31,16.26-3.92,20.03-12.45l-23.62-6.8c10.9-3.52,24.12,3.57,42.08-1.5,3.09,2.66-.89,7.84-4.46,11.1-3.53,3.23,3.24,7.89,6.29,10.5-14.35,2.33-27.11.52-40.32-.85ZM1750.18,639.43l-11.05,8.93c-5.53-1.09-12.5-2.46-16.29-6.77-.7-3.07.33-7.78-1.68-11.52l33.6-8.38-16.4,13.82c17.68,1.33,31.53-12.1,33.84-.78-7.32,1.57-16.46.19-22.02,4.7Z"/>
</svg>